<mxfile host="Electron" agent="Mozilla/5.0 (Windows NT 10.0; Win64; x64) AppleWebKit/537.36 (KHTML, like Gecko) draw.io/27.0.9 Chrome/134.0.6998.205 Electron/35.4.0 Safari/537.36" version="27.0.9">
  <diagram name="Page-1" id="rbLUzlrAnF9icej0EqVT">
    <mxGraphModel dx="4460" dy="1575" grid="1" gridSize="10" guides="1" tooltips="1" connect="1" arrows="1" fold="1" page="1" pageScale="1" pageWidth="850" pageHeight="1100" math="0" shadow="0">
      <root>
        <mxCell id="0" />
        <mxCell id="1" parent="0" />
        <mxCell id="dWKjTe6CmLwS2-9Y5jQj-43" value="" style="rounded=0;whiteSpace=wrap;html=1;fontFamily=Architects Daughter;fontSource=https%3A%2F%2Ffonts.googleapis.com%2Fcss%3Ffamily%3DArchitects%2BDaughter;fillColor=none;dashed=1;dashPattern=8 8;" parent="1" vertex="1">
          <mxGeometry x="455" y="240" width="270" height="450" as="geometry" />
        </mxCell>
        <mxCell id="dWKjTe6CmLwS2-9Y5jQj-41" value="" style="rounded=0;whiteSpace=wrap;html=1;fontFamily=Architects Daughter;fontSource=https%3A%2F%2Ffonts.googleapis.com%2Fcss%3Ffamily%3DArchitects%2BDaughter;fillColor=none;dashed=1;dashPattern=8 8;" parent="1" vertex="1">
          <mxGeometry x="-150" y="235" width="480" height="450" as="geometry" />
        </mxCell>
        <mxCell id="Qle2MFAWKHZKL1pYvsB5-1" value="Integration model &lt;font&gt;(how the tables are related)&lt;/font&gt;" style="text;html=1;align=center;verticalAlign=middle;resizable=0;points=[];autosize=1;strokeColor=none;fillColor=none;fontSize=22;fontFamily=Architects Daughter;fontSource=https%3A%2F%2Ffonts.googleapis.com%2Fcss%3Ffamily%3DArchitects%2BDaughter;" parent="1" vertex="1">
          <mxGeometry x="-35" y="40" width="490" height="40" as="geometry" />
        </mxCell>
        <mxCell id="Qle2MFAWKHZKL1pYvsB5-3" value="crm_cust_info" style="swimlane;fontStyle=0;childLayout=stackLayout;horizontal=1;startSize=30;horizontalStack=0;resizeParent=1;resizeParentMax=0;resizeLast=0;collapsible=1;marginBottom=0;whiteSpace=wrap;html=1;fontFamily=Architects Daughter;fontSource=https%3A%2F%2Ffonts.googleapis.com%2Fcss%3Ffamily%3DArchitects%2BDaughter;labelBorderColor=none;labelBackgroundColor=default;fillColor=#dae8fc;strokeColor=#6c8ebf;" parent="1" vertex="1">
          <mxGeometry x="170" y="450" width="140" height="90" as="geometry">
            <mxRectangle x="60" y="100" width="130" height="30" as="alternateBounds" />
          </mxGeometry>
        </mxCell>
        <mxCell id="Qle2MFAWKHZKL1pYvsB5-4" value="cst_id" style="text;strokeColor=none;fillColor=none;align=left;verticalAlign=middle;spacingLeft=4;spacingRight=4;overflow=hidden;points=[[0,0.5],[1,0.5]];portConstraint=eastwest;rotatable=0;whiteSpace=wrap;html=1;fontFamily=Architects Daughter;fontSource=https%3A%2F%2Ffonts.googleapis.com%2Fcss%3Ffamily%3DArchitects%2BDaughter;" parent="Qle2MFAWKHZKL1pYvsB5-3" vertex="1">
          <mxGeometry y="30" width="140" height="30" as="geometry" />
        </mxCell>
        <mxCell id="N1rbi3j3c_Pf0nSzD1yM-1" value="cst_key" style="text;strokeColor=none;fillColor=none;align=left;verticalAlign=middle;spacingLeft=4;spacingRight=4;overflow=hidden;points=[[0,0.5],[1,0.5]];portConstraint=eastwest;rotatable=0;whiteSpace=wrap;html=1;fontFamily=Architects Daughter;fontSource=https%3A%2F%2Ffonts.googleapis.com%2Fcss%3Ffamily%3DArchitects%2BDaughter;" vertex="1" parent="Qle2MFAWKHZKL1pYvsB5-3">
          <mxGeometry y="60" width="140" height="30" as="geometry" />
        </mxCell>
        <mxCell id="Qle2MFAWKHZKL1pYvsB5-7" value="customer information" style="rounded=0;whiteSpace=wrap;html=1;fontFamily=Architects Daughter;fontSource=https%3A%2F%2Ffonts.googleapis.com%2Fcss%3Ffamily%3DArchitects%2BDaughter;fontSize=9;" parent="1" vertex="1">
          <mxGeometry x="192.5" y="440" width="95" height="10" as="geometry" />
        </mxCell>
        <mxCell id="Qle2MFAWKHZKL1pYvsB5-8" value="crm_prd_info" style="swimlane;fontStyle=0;childLayout=stackLayout;horizontal=1;startSize=30;horizontalStack=0;resizeParent=1;resizeParentMax=0;resizeLast=0;collapsible=1;marginBottom=0;whiteSpace=wrap;html=1;fontFamily=Architects Daughter;fontSource=https%3A%2F%2Ffonts.googleapis.com%2Fcss%3Ffamily%3DArchitects%2BDaughter;labelBorderColor=none;labelBackgroundColor=default;fillColor=#dae8fc;strokeColor=#6c8ebf;" parent="1" vertex="1">
          <mxGeometry x="170" y="350" width="140" height="60" as="geometry">
            <mxRectangle x="60" y="100" width="130" height="30" as="alternateBounds" />
          </mxGeometry>
        </mxCell>
        <mxCell id="Qle2MFAWKHZKL1pYvsB5-9" value="prd_key" style="text;strokeColor=none;fillColor=none;align=left;verticalAlign=middle;spacingLeft=4;spacingRight=4;overflow=hidden;points=[[0,0.5],[1,0.5]];portConstraint=eastwest;rotatable=0;whiteSpace=wrap;html=1;fontFamily=Architects Daughter;fontSource=https%3A%2F%2Ffonts.googleapis.com%2Fcss%3Ffamily%3DArchitects%2BDaughter;" parent="Qle2MFAWKHZKL1pYvsB5-8" vertex="1">
          <mxGeometry y="30" width="140" height="30" as="geometry" />
        </mxCell>
        <mxCell id="Qle2MFAWKHZKL1pYvsB5-10" value="current &amp;amp; History Product Information" style="rounded=0;whiteSpace=wrap;html=1;fontFamily=Architects Daughter;fontSource=https%3A%2F%2Ffonts.googleapis.com%2Fcss%3Ffamily%3DArchitects%2BDaughter;fontSize=10;labelBorderColor=none;textShadow=0;fillColor=#dae8fc;strokeColor=#6c8ebf;" parent="1" vertex="1">
          <mxGeometry x="165" y="320" width="150" height="30" as="geometry" />
        </mxCell>
        <mxCell id="Qle2MFAWKHZKL1pYvsB5-11" value="crm_sales_details" style="swimlane;fontStyle=0;childLayout=stackLayout;horizontal=1;startSize=30;horizontalStack=0;resizeParent=1;resizeParentMax=0;resizeLast=0;collapsible=1;marginBottom=0;whiteSpace=wrap;html=1;fontFamily=Architects Daughter;fontSource=https%3A%2F%2Ffonts.googleapis.com%2Fcss%3Ffamily%3DArchitects%2BDaughter;labelBorderColor=none;labelBackgroundColor=default;fillColor=#dae8fc;strokeColor=#6c8ebf;" parent="1" vertex="1">
          <mxGeometry x="-105" y="370" width="145" height="90" as="geometry">
            <mxRectangle x="60" y="100" width="130" height="30" as="alternateBounds" />
          </mxGeometry>
        </mxCell>
        <mxCell id="Qle2MFAWKHZKL1pYvsB5-12" value="prd_key" style="text;strokeColor=none;fillColor=none;align=center;verticalAlign=middle;spacingLeft=4;spacingRight=4;overflow=hidden;points=[[0,0.5],[1,0.5]];portConstraint=eastwest;rotatable=0;whiteSpace=wrap;html=1;fontFamily=Architects Daughter;fontSource=https%3A%2F%2Ffonts.googleapis.com%2Fcss%3Ffamily%3DArchitects%2BDaughter;" parent="Qle2MFAWKHZKL1pYvsB5-11" vertex="1">
          <mxGeometry y="30" width="145" height="30" as="geometry" />
        </mxCell>
        <mxCell id="Qle2MFAWKHZKL1pYvsB5-14" value="cst_id" style="text;strokeColor=none;fillColor=none;align=center;verticalAlign=middle;spacingLeft=4;spacingRight=4;overflow=hidden;points=[[0,0.5],[1,0.5]];portConstraint=eastwest;rotatable=0;whiteSpace=wrap;html=1;fontFamily=Architects Daughter;fontSource=https%3A%2F%2Ffonts.googleapis.com%2Fcss%3Ffamily%3DArchitects%2BDaughter;" parent="Qle2MFAWKHZKL1pYvsB5-11" vertex="1">
          <mxGeometry y="60" width="145" height="30" as="geometry" />
        </mxCell>
        <mxCell id="Qle2MFAWKHZKL1pYvsB5-13" value="Transaction Records about Sales &amp;amp; Orders" style="rounded=0;whiteSpace=wrap;html=1;fontFamily=Architects Daughter;fontSource=https%3A%2F%2Ffonts.googleapis.com%2Fcss%3Ffamily%3DArchitects%2BDaughter;fontSize=9;fillColor=#dae8fc;strokeColor=#6c8ebf;" parent="1" vertex="1">
          <mxGeometry x="-110" y="340" width="150" height="30" as="geometry" />
        </mxCell>
        <mxCell id="Qle2MFAWKHZKL1pYvsB5-17" style="edgeStyle=none;curved=1;rounded=0;orthogonalLoop=1;jettySize=auto;html=1;fontFamily=Architects Daughter;fontSource=https%3A%2F%2Ffonts.googleapis.com%2Fcss%3Ffamily%3DArchitects%2BDaughter;fontSize=16;startSize=14;endArrow=open;endSize=14;sourcePerimeterSpacing=8;targetPerimeterSpacing=8;entryX=-0.036;entryY=0.333;entryDx=0;entryDy=0;entryPerimeter=0;exitX=1;exitY=0.5;exitDx=0;exitDy=0;" parent="1" source="Qle2MFAWKHZKL1pYvsB5-14" target="Qle2MFAWKHZKL1pYvsB5-4" edge="1">
          <mxGeometry relative="1" as="geometry">
            <mxPoint x="110" y="445" as="targetPoint" />
            <Array as="points">
              <mxPoint x="100" y="490" />
            </Array>
          </mxGeometry>
        </mxCell>
        <mxCell id="Qle2MFAWKHZKL1pYvsB5-18" style="edgeStyle=none;curved=1;rounded=0;orthogonalLoop=1;jettySize=auto;html=1;entryX=0;entryY=0.5;entryDx=0;entryDy=0;fontFamily=Architects Daughter;fontSource=https%3A%2F%2Ffonts.googleapis.com%2Fcss%3Ffamily%3DArchitects%2BDaughter;fontSize=16;startSize=14;endArrow=open;endSize=14;sourcePerimeterSpacing=8;targetPerimeterSpacing=8;exitX=1;exitY=0.5;exitDx=0;exitDy=0;" parent="1" source="Qle2MFAWKHZKL1pYvsB5-12" target="Qle2MFAWKHZKL1pYvsB5-9" edge="1">
          <mxGeometry relative="1" as="geometry">
            <Array as="points">
              <mxPoint x="100" y="380" />
            </Array>
          </mxGeometry>
        </mxCell>
        <mxCell id="Qle2MFAWKHZKL1pYvsB5-19" value="erp_cust_AZ12" style="swimlane;fontStyle=0;childLayout=stackLayout;horizontal=1;startSize=30;horizontalStack=0;resizeParent=1;resizeParentMax=0;resizeLast=0;collapsible=1;marginBottom=0;whiteSpace=wrap;html=1;fontFamily=Architects Daughter;fontSource=https%3A%2F%2Ffonts.googleapis.com%2Fcss%3Ffamily%3DArchitects%2BDaughter;labelBorderColor=none;labelBackgroundColor=default;fillColor=#fff2cc;strokeColor=#d6b656;" parent="1" vertex="1">
          <mxGeometry x="510" y="435" width="140" height="60" as="geometry">
            <mxRectangle x="60" y="100" width="130" height="30" as="alternateBounds" />
          </mxGeometry>
        </mxCell>
        <mxCell id="Qle2MFAWKHZKL1pYvsB5-20" value="cid" style="text;strokeColor=none;fillColor=none;align=left;verticalAlign=middle;spacingLeft=4;spacingRight=4;overflow=hidden;points=[[0,0.5],[1,0.5]];portConstraint=eastwest;rotatable=0;whiteSpace=wrap;html=1;fontFamily=Architects Daughter;fontSource=https%3A%2F%2Ffonts.googleapis.com%2Fcss%3Ffamily%3DArchitects%2BDaughter;" parent="Qle2MFAWKHZKL1pYvsB5-19" vertex="1">
          <mxGeometry y="30" width="140" height="30" as="geometry" />
        </mxCell>
        <mxCell id="Qle2MFAWKHZKL1pYvsB5-21" value="&lt;span style=&quot;font-size: 10px;&quot;&gt;Subcat information&lt;/span&gt;" style="rounded=0;whiteSpace=wrap;html=1;fontFamily=Architects Daughter;fontSource=https%3A%2F%2Ffonts.googleapis.com%2Fcss%3Ffamily%3DArchitects%2BDaughter;fontSize=9;fillColor=#fff2cc;strokeColor=#d6b656;" parent="1" vertex="1">
          <mxGeometry x="521.25" y="405" width="117.5" height="30" as="geometry" />
        </mxCell>
        <mxCell id="Qle2MFAWKHZKL1pYvsB5-24" style="edgeStyle=none;curved=1;rounded=0;orthogonalLoop=1;jettySize=auto;html=1;entryX=0;entryY=0.5;entryDx=0;entryDy=0;fontFamily=Architects Daughter;fontSource=https%3A%2F%2Ffonts.googleapis.com%2Fcss%3Ffamily%3DArchitects%2BDaughter;fontSize=16;startSize=14;endArrow=open;endSize=14;sourcePerimeterSpacing=8;targetPerimeterSpacing=8;exitX=1;exitY=0.5;exitDx=0;exitDy=0;" parent="1" source="Qle2MFAWKHZKL1pYvsB5-4" target="Qle2MFAWKHZKL1pYvsB5-20" edge="1">
          <mxGeometry relative="1" as="geometry" />
        </mxCell>
        <mxCell id="Qle2MFAWKHZKL1pYvsB5-25" value="erp_loc_A101" style="swimlane;fontStyle=0;childLayout=stackLayout;horizontal=1;startSize=30;horizontalStack=0;resizeParent=1;resizeParentMax=0;resizeLast=0;collapsible=1;marginBottom=0;whiteSpace=wrap;html=1;fontFamily=Architects Daughter;fontSource=https%3A%2F%2Ffonts.googleapis.com%2Fcss%3Ffamily%3DArchitects%2BDaughter;labelBorderColor=none;labelBackgroundColor=default;fillColor=#fff2cc;strokeColor=#d6b656;" parent="1" vertex="1">
          <mxGeometry x="510" y="575" width="140" height="60" as="geometry">
            <mxRectangle x="60" y="100" width="130" height="30" as="alternateBounds" />
          </mxGeometry>
        </mxCell>
        <mxCell id="Qle2MFAWKHZKL1pYvsB5-26" value="cid" style="text;strokeColor=none;fillColor=none;align=left;verticalAlign=middle;spacingLeft=4;spacingRight=4;overflow=hidden;points=[[0,0.5],[1,0.5]];portConstraint=eastwest;rotatable=0;whiteSpace=wrap;html=1;fontFamily=Architects Daughter;fontSource=https%3A%2F%2Ffonts.googleapis.com%2Fcss%3Ffamily%3DArchitects%2BDaughter;" parent="Qle2MFAWKHZKL1pYvsB5-25" vertex="1">
          <mxGeometry y="30" width="140" height="30" as="geometry" />
        </mxCell>
        <mxCell id="Qle2MFAWKHZKL1pYvsB5-27" value="&lt;span style=&quot;font-size: 10px;&quot;&gt;Location of Customers (country)&lt;/span&gt;" style="rounded=0;whiteSpace=wrap;html=1;fontFamily=Architects Daughter;fontSource=https%3A%2F%2Ffonts.googleapis.com%2Fcss%3Ffamily%3DArchitects%2BDaughter;fontSize=9;fillColor=#fff2cc;strokeColor=#d6b656;" parent="1" vertex="1">
          <mxGeometry x="521.25" y="545" width="117.5" height="30" as="geometry" />
        </mxCell>
        <mxCell id="Qle2MFAWKHZKL1pYvsB5-28" style="edgeStyle=none;curved=1;rounded=0;orthogonalLoop=1;jettySize=auto;html=1;entryX=0.004;entryY=0.389;entryDx=0;entryDy=0;entryPerimeter=0;fontFamily=Architects Daughter;fontSource=https%3A%2F%2Ffonts.googleapis.com%2Fcss%3Ffamily%3DArchitects%2BDaughter;fontSize=16;startSize=14;endArrow=open;endSize=14;sourcePerimeterSpacing=8;targetPerimeterSpacing=8;exitX=1;exitY=0.5;exitDx=0;exitDy=0;" parent="1" source="Qle2MFAWKHZKL1pYvsB5-4" target="Qle2MFAWKHZKL1pYvsB5-26" edge="1">
          <mxGeometry relative="1" as="geometry">
            <Array as="points">
              <mxPoint x="440" y="550" />
            </Array>
          </mxGeometry>
        </mxCell>
        <mxCell id="Qle2MFAWKHZKL1pYvsB5-29" value="erp_px_cat_g1v2" style="swimlane;fontStyle=0;childLayout=stackLayout;horizontal=1;startSize=30;horizontalStack=0;resizeParent=1;resizeParentMax=0;resizeLast=0;collapsible=1;marginBottom=0;whiteSpace=wrap;html=1;fontFamily=Architects Daughter;fontSource=https%3A%2F%2Ffonts.googleapis.com%2Fcss%3Ffamily%3DArchitects%2BDaughter;labelBorderColor=none;labelBackgroundColor=default;fillColor=#fff2cc;strokeColor=#d6b656;" parent="1" vertex="1">
          <mxGeometry x="510" y="315" width="140" height="60" as="geometry">
            <mxRectangle x="60" y="100" width="130" height="30" as="alternateBounds" />
          </mxGeometry>
        </mxCell>
        <mxCell id="Qle2MFAWKHZKL1pYvsB5-30" value="id" style="text;strokeColor=none;fillColor=none;align=left;verticalAlign=middle;spacingLeft=4;spacingRight=4;overflow=hidden;points=[[0,0.5],[1,0.5]];portConstraint=eastwest;rotatable=0;whiteSpace=wrap;html=1;fontFamily=Architects Daughter;fontSource=https%3A%2F%2Ffonts.googleapis.com%2Fcss%3Ffamily%3DArchitects%2BDaughter;" parent="Qle2MFAWKHZKL1pYvsB5-29" vertex="1">
          <mxGeometry y="30" width="140" height="30" as="geometry" />
        </mxCell>
        <mxCell id="Qle2MFAWKHZKL1pYvsB5-31" value="&lt;span style=&quot;font-size: 10px;&quot;&gt;Extra customer information (birthadat)&lt;/span&gt;" style="rounded=0;whiteSpace=wrap;html=1;fontFamily=Architects Daughter;fontSource=https%3A%2F%2Ffonts.googleapis.com%2Fcss%3Ffamily%3DArchitects%2BDaughter;fontSize=9;fillColor=#fff2cc;strokeColor=#d6b656;" parent="1" vertex="1">
          <mxGeometry x="521.25" y="285" width="117.5" height="30" as="geometry" />
        </mxCell>
        <mxCell id="dWKjTe6CmLwS2-9Y5jQj-2" value="Data Flow Daigram" style="text;html=1;align=center;verticalAlign=middle;resizable=0;points=[];autosize=1;strokeColor=none;fillColor=none;fontSize=20;fontFamily=Times New Roman;" parent="1" vertex="1">
          <mxGeometry x="-1140" y="35" width="180" height="40" as="geometry" />
        </mxCell>
        <mxCell id="dWKjTe6CmLwS2-9Y5jQj-3" value="" style="rounded=0;whiteSpace=wrap;html=1;fontFamily=Architects Daughter;fontSource=https%3A%2F%2Ffonts.googleapis.com%2Fcss%3Ffamily%3DArchitects%2BDaughter;fillColor=none;strokeColor=default;dashed=1;" parent="1" vertex="1">
          <mxGeometry x="-1080" y="155" width="80" height="280" as="geometry" />
        </mxCell>
        <mxCell id="dWKjTe6CmLwS2-9Y5jQj-5" value="Sources" style="text;html=1;align=center;verticalAlign=middle;resizable=0;points=[];autosize=1;strokeColor=none;fillColor=none;fontSize=17;fontFamily=Times New Roman;" parent="1" vertex="1">
          <mxGeometry x="-1080" y="130" width="80" height="30" as="geometry" />
        </mxCell>
        <mxCell id="dWKjTe6CmLwS2-9Y5jQj-8" value="" style="image;aspect=fixed;html=1;points=[];align=center;fontSize=12;image=img/lib/azure2/general/Folder_Blank.svg;fontFamily=Architects Daughter;fontSource=https%3A%2F%2Ffonts.googleapis.com%2Fcss%3Ffamily%3DArchitects%2BDaughter;" parent="1" vertex="1">
          <mxGeometry x="-1052.3200000000002" y="235" width="24.64" height="20" as="geometry" />
        </mxCell>
        <mxCell id="dWKjTe6CmLwS2-9Y5jQj-10" value="" style="image;aspect=fixed;html=1;points=[];align=center;fontSize=12;image=img/lib/azure2/general/Folder_Blank.svg;fontFamily=Architects Daughter;fontSource=https%3A%2F%2Ffonts.googleapis.com%2Fcss%3Ffamily%3DArchitects%2BDaughter;" parent="1" vertex="1">
          <mxGeometry x="-1052.3200000000002" y="365" width="24.64" height="20" as="geometry" />
        </mxCell>
        <mxCell id="dWKjTe6CmLwS2-9Y5jQj-12" value="CRM" style="text;html=1;align=center;verticalAlign=middle;resizable=0;points=[];autosize=1;strokeColor=none;fillColor=none;fontSize=9;fontFamily=Times New Roman;" parent="1" vertex="1">
          <mxGeometry x="-1060" y="255" width="40" height="20" as="geometry" />
        </mxCell>
        <mxCell id="dWKjTe6CmLwS2-9Y5jQj-13" value="ERP" style="text;html=1;align=center;verticalAlign=middle;resizable=0;points=[];autosize=1;strokeColor=none;fillColor=none;fontSize=9;fontFamily=Times New Roman;" parent="1" vertex="1">
          <mxGeometry x="-1060" y="385" width="40" height="20" as="geometry" />
        </mxCell>
        <mxCell id="dWKjTe6CmLwS2-9Y5jQj-14" value="" style="rounded=0;whiteSpace=wrap;html=1;fontFamily=Architects Daughter;fontSource=https%3A%2F%2Ffonts.googleapis.com%2Fcss%3Ffamily%3DArchitects%2BDaughter;fillColor=none;strokeColor=default;dashed=1;" parent="1" vertex="1">
          <mxGeometry x="-940" y="175" width="120" height="260" as="geometry" />
        </mxCell>
        <mxCell id="dWKjTe6CmLwS2-9Y5jQj-15" value="Bronze Layer" style="rounded=0;whiteSpace=wrap;html=1;fontFamily=Times New Roman;fillColor=#fff2cc;strokeColor=#d6b656;" parent="1" vertex="1">
          <mxGeometry x="-919.37" y="155" width="78.75" height="30" as="geometry" />
        </mxCell>
        <mxCell id="dWKjTe6CmLwS2-9Y5jQj-17" value="crm_sales_details" style="rounded=0;whiteSpace=wrap;html=1;fontFamily=Times New Roman;fillColor=#fff2cc;strokeColor=#d6b656;" parent="1" vertex="1">
          <mxGeometry x="-930" y="210" width="100" height="20" as="geometry" />
        </mxCell>
        <mxCell id="dWKjTe6CmLwS2-9Y5jQj-18" value="crm_cust_info" style="rounded=0;whiteSpace=wrap;html=1;fontFamily=Times New Roman;fillColor=#fff2cc;strokeColor=#d6b656;" parent="1" vertex="1">
          <mxGeometry x="-930" y="240" width="100" height="20" as="geometry" />
        </mxCell>
        <mxCell id="dWKjTe6CmLwS2-9Y5jQj-19" value="crm_prd_info" style="rounded=0;whiteSpace=wrap;html=1;fontFamily=Times New Roman;fillColor=#fff2cc;strokeColor=#d6b656;" parent="1" vertex="1">
          <mxGeometry x="-930" y="270" width="100" height="20" as="geometry" />
        </mxCell>
        <mxCell id="dWKjTe6CmLwS2-9Y5jQj-20" value="crm_prd_info" style="rounded=0;whiteSpace=wrap;html=1;fontFamily=Times New Roman;fillColor=#fff2cc;strokeColor=#d6b656;" parent="1" vertex="1">
          <mxGeometry x="-930" y="395" width="100" height="20" as="geometry" />
        </mxCell>
        <mxCell id="dWKjTe6CmLwS2-9Y5jQj-21" value="crm_cust_info" style="rounded=0;whiteSpace=wrap;html=1;fontFamily=Times New Roman;fillColor=#fff2cc;strokeColor=#d6b656;" parent="1" vertex="1">
          <mxGeometry x="-930" y="365" width="100" height="20" as="geometry" />
        </mxCell>
        <mxCell id="dWKjTe6CmLwS2-9Y5jQj-22" value="crm_sales_details" style="rounded=0;whiteSpace=wrap;html=1;fontFamily=Times New Roman;fillColor=#fff2cc;strokeColor=#d6b656;" parent="1" vertex="1">
          <mxGeometry x="-930" y="335" width="100" height="20" as="geometry" />
        </mxCell>
        <mxCell id="dWKjTe6CmLwS2-9Y5jQj-30" value="" style="edgeStyle=orthogonalEdgeStyle;html=1;endArrow=openThin;elbow=vertical;startArrow=none;endFill=0;strokeColor=#545B64;rounded=0;fontFamily=Architects Daughter;fontSource=https%3A%2F%2Ffonts.googleapis.com%2Fcss%3Ffamily%3DArchitects%2BDaughter;fontSize=16;startSize=14;endSize=14;sourcePerimeterSpacing=8;targetPerimeterSpacing=8;curved=1;" parent="1" edge="1">
          <mxGeometry width="100" relative="1" as="geometry">
            <mxPoint x="-1027.68" y="249.71" as="sourcePoint" />
            <mxPoint x="-927.6800000000001" y="249.71" as="targetPoint" />
          </mxGeometry>
        </mxCell>
        <mxCell id="dWKjTe6CmLwS2-9Y5jQj-33" value="" style="edgeStyle=orthogonalEdgeStyle;html=1;endArrow=openThin;elbow=vertical;startArrow=none;endFill=0;strokeColor=#545B64;rounded=0;fontFamily=Architects Daughter;fontSource=https%3A%2F%2Ffonts.googleapis.com%2Fcss%3Ffamily%3DArchitects%2BDaughter;fontSize=16;startSize=14;endSize=14;sourcePerimeterSpacing=8;targetPerimeterSpacing=8;curved=1;entryX=0;entryY=0.5;entryDx=0;entryDy=0;exitX=0.952;exitY=0.657;exitDx=0;exitDy=0;exitPerimeter=0;" parent="1" source="dWKjTe6CmLwS2-9Y5jQj-8" target="dWKjTe6CmLwS2-9Y5jQj-19" edge="1">
          <mxGeometry width="100" relative="1" as="geometry">
            <mxPoint x="-1027.68" y="254.43" as="sourcePoint" />
            <mxPoint x="-927.6800000000001" y="254.43" as="targetPoint" />
          </mxGeometry>
        </mxCell>
        <mxCell id="dWKjTe6CmLwS2-9Y5jQj-34" value="" style="edgeStyle=orthogonalEdgeStyle;html=1;endArrow=openThin;elbow=vertical;startArrow=none;endFill=0;strokeColor=#545B64;rounded=0;fontFamily=Architects Daughter;fontSource=https%3A%2F%2Ffonts.googleapis.com%2Fcss%3Ffamily%3DArchitects%2BDaughter;fontSize=16;startSize=14;endSize=14;sourcePerimeterSpacing=8;targetPerimeterSpacing=8;curved=1;entryX=0;entryY=0.25;entryDx=0;entryDy=0;" parent="1" target="dWKjTe6CmLwS2-9Y5jQj-17" edge="1">
          <mxGeometry width="100" relative="1" as="geometry">
            <mxPoint x="-1027.68" y="249.71" as="sourcePoint" />
            <mxPoint x="-927.6800000000001" y="249.71" as="targetPoint" />
          </mxGeometry>
        </mxCell>
        <mxCell id="dWKjTe6CmLwS2-9Y5jQj-37" value="" style="edgeStyle=orthogonalEdgeStyle;html=1;endArrow=openThin;elbow=vertical;startArrow=none;endFill=0;strokeColor=#545B64;rounded=0;fontFamily=Architects Daughter;fontSource=https%3A%2F%2Ffonts.googleapis.com%2Fcss%3Ffamily%3DArchitects%2BDaughter;fontSize=16;startSize=14;endSize=14;sourcePerimeterSpacing=8;targetPerimeterSpacing=8;curved=1;entryX=0;entryY=0.25;entryDx=0;entryDy=0;" parent="1" edge="1">
          <mxGeometry width="100" relative="1" as="geometry">
            <mxPoint x="-1030" y="374.71000000000004" as="sourcePoint" />
            <mxPoint x="-932.32" y="340" as="targetPoint" />
            <Array as="points">
              <mxPoint x="-960" y="375" />
              <mxPoint x="-960" y="340" />
            </Array>
          </mxGeometry>
        </mxCell>
        <mxCell id="dWKjTe6CmLwS2-9Y5jQj-38" value="" style="edgeStyle=orthogonalEdgeStyle;html=1;endArrow=openThin;elbow=vertical;startArrow=none;endFill=0;strokeColor=#545B64;rounded=0;fontFamily=Architects Daughter;fontSource=https%3A%2F%2Ffonts.googleapis.com%2Fcss%3Ffamily%3DArchitects%2BDaughter;fontSize=16;startSize=14;endSize=14;sourcePerimeterSpacing=8;targetPerimeterSpacing=8;curved=1;" parent="1" edge="1">
          <mxGeometry width="100" relative="1" as="geometry">
            <mxPoint x="-1030" y="374.71000000000004" as="sourcePoint" />
            <mxPoint x="-930.0000000000001" y="374.71000000000004" as="targetPoint" />
          </mxGeometry>
        </mxCell>
        <mxCell id="dWKjTe6CmLwS2-9Y5jQj-39" value="" style="edgeStyle=orthogonalEdgeStyle;html=1;endArrow=openThin;elbow=vertical;startArrow=none;endFill=0;strokeColor=#545B64;rounded=0;fontFamily=Architects Daughter;fontSource=https%3A%2F%2Ffonts.googleapis.com%2Fcss%3Ffamily%3DArchitects%2BDaughter;fontSize=16;startSize=14;endSize=14;sourcePerimeterSpacing=8;targetPerimeterSpacing=8;curved=1;entryX=0;entryY=0.75;entryDx=0;entryDy=0;" parent="1" target="dWKjTe6CmLwS2-9Y5jQj-20" edge="1">
          <mxGeometry width="100" relative="1" as="geometry">
            <mxPoint x="-1030" y="375.00000000000006" as="sourcePoint" />
            <mxPoint x="-930.0000000000001" y="375.00000000000006" as="targetPoint" />
          </mxGeometry>
        </mxCell>
        <mxCell id="dWKjTe6CmLwS2-9Y5jQj-40" style="edgeStyle=none;curved=1;rounded=0;orthogonalLoop=1;jettySize=auto;html=1;entryX=0;entryY=0.5;entryDx=0;entryDy=0;fontFamily=Architects Daughter;fontSource=https%3A%2F%2Ffonts.googleapis.com%2Fcss%3Ffamily%3DArchitects%2BDaughter;fontSize=16;startSize=14;endArrow=open;endSize=14;sourcePerimeterSpacing=8;targetPerimeterSpacing=8;exitX=0.958;exitY=0.344;exitDx=0;exitDy=0;exitPerimeter=0;" parent="1" source="dWKjTe6CmLwS2-9Y5jQj-41" edge="1">
          <mxGeometry relative="1" as="geometry">
            <mxPoint x="310" y="369.9999999999999" as="sourcePoint" />
            <mxPoint x="510" y="349.9999999999999" as="targetPoint" />
            <Array as="points">
              <mxPoint x="450" y="335" />
            </Array>
          </mxGeometry>
        </mxCell>
        <mxCell id="dWKjTe6CmLwS2-9Y5jQj-42" value="CRM" style="rounded=0;whiteSpace=wrap;html=1;fontFamily=Architects Daughter;fontSource=https%3A%2F%2Ffonts.googleapis.com%2Fcss%3Ffamily%3DArchitects%2BDaughter;fillColor=#dae8fc;strokeColor=#6c8ebf;fontSize=23;" parent="1" vertex="1">
          <mxGeometry x="-22.5" y="175" width="225" height="80" as="geometry" />
        </mxCell>
        <mxCell id="dWKjTe6CmLwS2-9Y5jQj-44" value="ERP" style="rounded=0;whiteSpace=wrap;html=1;fontFamily=Architects Daughter;fontSource=https%3A%2F%2Ffonts.googleapis.com%2Fcss%3Ffamily%3DArchitects%2BDaughter;fillColor=#fff2cc;strokeColor=#d6b656;" parent="1" vertex="1">
          <mxGeometry x="498.75" y="205" width="182.5" height="50" as="geometry" />
        </mxCell>
        <mxCell id="dWKjTe6CmLwS2-9Y5jQj-45" value="" style="rounded=0;whiteSpace=wrap;html=1;fontFamily=Architects Daughter;fontSource=https%3A%2F%2Ffonts.googleapis.com%2Fcss%3Ffamily%3DArchitects%2BDaughter;fillColor=none;strokeColor=#666666;dashed=1;fontColor=#333333;" parent="1" vertex="1">
          <mxGeometry x="-790" y="175" width="120" height="260" as="geometry" />
        </mxCell>
        <mxCell id="dWKjTe6CmLwS2-9Y5jQj-46" value="Bronze Layer" style="rounded=0;whiteSpace=wrap;html=1;fontFamily=Times New Roman;fillColor=#f5f5f5;strokeColor=#666666;fontColor=#333333;" parent="1" vertex="1">
          <mxGeometry x="-769.37" y="155" width="78.75" height="30" as="geometry" />
        </mxCell>
        <mxCell id="dWKjTe6CmLwS2-9Y5jQj-47" value="crm_sales_details" style="rounded=0;whiteSpace=wrap;html=1;fontFamily=Times New Roman;fillColor=#f5f5f5;strokeColor=#666666;fontColor=#333333;" parent="1" vertex="1">
          <mxGeometry x="-780" y="210" width="100" height="20" as="geometry" />
        </mxCell>
        <mxCell id="dWKjTe6CmLwS2-9Y5jQj-48" value="crm_cust_info" style="rounded=0;whiteSpace=wrap;html=1;fontFamily=Times New Roman;fillColor=#f5f5f5;strokeColor=#666666;fontColor=#333333;" parent="1" vertex="1">
          <mxGeometry x="-780" y="240" width="100" height="20" as="geometry" />
        </mxCell>
        <mxCell id="dWKjTe6CmLwS2-9Y5jQj-49" value="crm_prd_info" style="rounded=0;whiteSpace=wrap;html=1;fontFamily=Times New Roman;fillColor=#f5f5f5;strokeColor=#666666;fontColor=#333333;" parent="1" vertex="1">
          <mxGeometry x="-780" y="270" width="100" height="20" as="geometry" />
        </mxCell>
        <mxCell id="dWKjTe6CmLwS2-9Y5jQj-50" value="crm_prd_info" style="rounded=0;whiteSpace=wrap;html=1;fontFamily=Times New Roman;fillColor=#f5f5f5;strokeColor=#666666;fontColor=#333333;" parent="1" vertex="1">
          <mxGeometry x="-780" y="395" width="100" height="20" as="geometry" />
        </mxCell>
        <mxCell id="dWKjTe6CmLwS2-9Y5jQj-51" value="crm_cust_info" style="rounded=0;whiteSpace=wrap;html=1;fontFamily=Times New Roman;fillColor=#f5f5f5;strokeColor=#666666;fontColor=#333333;" parent="1" vertex="1">
          <mxGeometry x="-780" y="365" width="100" height="20" as="geometry" />
        </mxCell>
        <mxCell id="dWKjTe6CmLwS2-9Y5jQj-52" value="crm_sales_details" style="rounded=0;whiteSpace=wrap;html=1;fontFamily=Times New Roman;fillColor=#f5f5f5;strokeColor=#666666;fontColor=#333333;" parent="1" vertex="1">
          <mxGeometry x="-780" y="335" width="100" height="20" as="geometry" />
        </mxCell>
        <mxCell id="dWKjTe6CmLwS2-9Y5jQj-53" value="Customer" style="rounded=0;whiteSpace=wrap;html=1;fontFamily=Architects Daughter;fontSource=https%3A%2F%2Ffonts.googleapis.com%2Fcss%3Ffamily%3DArchitects%2BDaughter;fillColor=#d5e8d4;strokeColor=#82b366;" parent="1" vertex="1">
          <mxGeometry x="175" y="540" width="130" height="20" as="geometry" />
        </mxCell>
        <mxCell id="dWKjTe6CmLwS2-9Y5jQj-54" value="Customer" style="rounded=0;whiteSpace=wrap;html=1;fontFamily=Architects Daughter;fontSource=https%3A%2F%2Ffonts.googleapis.com%2Fcss%3Ffamily%3DArchitects%2BDaughter;fillColor=#d5e8d4;strokeColor=#82b366;" parent="1" vertex="1">
          <mxGeometry x="515" y="635" width="130" height="20" as="geometry" />
        </mxCell>
        <mxCell id="dWKjTe6CmLwS2-9Y5jQj-55" value="Customer" style="rounded=0;whiteSpace=wrap;html=1;fontFamily=Architects Daughter;fontSource=https%3A%2F%2Ffonts.googleapis.com%2Fcss%3Ffamily%3DArchitects%2BDaughter;fillColor=#d5e8d4;strokeColor=#82b366;" parent="1" vertex="1">
          <mxGeometry x="515" y="495" width="130" height="20" as="geometry" />
        </mxCell>
        <mxCell id="dWKjTe6CmLwS2-9Y5jQj-56" value="Product" style="rounded=0;whiteSpace=wrap;html=1;fontFamily=Architects Daughter;fontSource=https%3A%2F%2Ffonts.googleapis.com%2Fcss%3Ffamily%3DArchitects%2BDaughter;fillColor=#e1d5e7;strokeColor=#9673a6;" parent="1" vertex="1">
          <mxGeometry x="170" y="410" width="130" height="20" as="geometry" />
        </mxCell>
        <mxCell id="dWKjTe6CmLwS2-9Y5jQj-57" value="Product" style="rounded=0;whiteSpace=wrap;html=1;fontFamily=Architects Daughter;fontSource=https%3A%2F%2Ffonts.googleapis.com%2Fcss%3Ffamily%3DArchitects%2BDaughter;fillColor=#e1d5e7;strokeColor=#9673a6;" parent="1" vertex="1">
          <mxGeometry x="515" y="375" width="130" height="20" as="geometry" />
        </mxCell>
        <mxCell id="dWKjTe6CmLwS2-9Y5jQj-58" value="SALES" style="rounded=0;whiteSpace=wrap;html=1;fontFamily=Architects Daughter;fontSource=https%3A%2F%2Ffonts.googleapis.com%2Fcss%3Ffamily%3DArchitects%2BDaughter;fillColor=#f9f7ed;strokeColor=#36393d;" parent="1" vertex="1">
          <mxGeometry x="-97.5" y="460" width="130" height="20" as="geometry" />
        </mxCell>
        <mxCell id="N1rbi3j3c_Pf0nSzD1yM-2" value="Data Mart (Star Schemas)" style="text;html=1;align=center;verticalAlign=middle;resizable=0;points=[];autosize=1;strokeColor=none;fillColor=none;fontSize=20;fontFamily=Times New Roman;" vertex="1" parent="1">
          <mxGeometry x="-230" y="900" width="230" height="40" as="geometry" />
        </mxCell>
        <mxCell id="N1rbi3j3c_Pf0nSzD1yM-7" value="gold.dim_customers" style="shape=table;startSize=30;container=1;collapsible=1;childLayout=tableLayout;fixedRows=1;rowLines=0;fontStyle=1;align=center;resizeLast=1;fontFamily=Helvetica;textShadow=0;labelBorderColor=none;fillColor=#fff2cc;strokeColor=#d6b656;" vertex="1" parent="1">
          <mxGeometry x="-190" y="1000" width="180" height="330" as="geometry" />
        </mxCell>
        <mxCell id="N1rbi3j3c_Pf0nSzD1yM-8" value="" style="shape=tableRow;horizontal=0;startSize=0;swimlaneHead=0;swimlaneBody=0;fillColor=none;collapsible=0;dropTarget=0;points=[[0,0.5],[1,0.5]];portConstraint=eastwest;top=0;left=0;right=0;bottom=1;fontFamily=Helvetica;textShadow=0;labelBorderColor=none;" vertex="1" parent="N1rbi3j3c_Pf0nSzD1yM-7">
          <mxGeometry y="30" width="180" height="30" as="geometry" />
        </mxCell>
        <mxCell id="N1rbi3j3c_Pf0nSzD1yM-9" value="PK" style="shape=partialRectangle;connectable=0;fillColor=none;top=0;left=0;bottom=0;right=0;fontStyle=1;overflow=hidden;fontFamily=Helvetica;textShadow=0;labelBorderColor=none;" vertex="1" parent="N1rbi3j3c_Pf0nSzD1yM-8">
          <mxGeometry width="30" height="30" as="geometry">
            <mxRectangle width="30" height="30" as="alternateBounds" />
          </mxGeometry>
        </mxCell>
        <mxCell id="N1rbi3j3c_Pf0nSzD1yM-10" value="customer_key" style="shape=partialRectangle;connectable=0;fillColor=none;top=0;left=0;bottom=0;right=0;align=left;spacingLeft=6;fontStyle=5;overflow=hidden;fontFamily=Helvetica;textShadow=0;labelBorderColor=none;" vertex="1" parent="N1rbi3j3c_Pf0nSzD1yM-8">
          <mxGeometry x="30" width="150" height="30" as="geometry">
            <mxRectangle width="150" height="30" as="alternateBounds" />
          </mxGeometry>
        </mxCell>
        <mxCell id="N1rbi3j3c_Pf0nSzD1yM-11" value="" style="shape=tableRow;horizontal=0;startSize=0;swimlaneHead=0;swimlaneBody=0;fillColor=none;collapsible=0;dropTarget=0;points=[[0,0.5],[1,0.5]];portConstraint=eastwest;top=0;left=0;right=0;bottom=0;fontFamily=Helvetica;textShadow=0;labelBorderColor=none;" vertex="1" parent="N1rbi3j3c_Pf0nSzD1yM-7">
          <mxGeometry y="60" width="180" height="30" as="geometry" />
        </mxCell>
        <mxCell id="N1rbi3j3c_Pf0nSzD1yM-12" value="" style="shape=partialRectangle;connectable=0;fillColor=none;top=0;left=0;bottom=0;right=0;editable=1;overflow=hidden;fontFamily=Helvetica;textShadow=0;labelBorderColor=none;" vertex="1" parent="N1rbi3j3c_Pf0nSzD1yM-11">
          <mxGeometry width="30" height="30" as="geometry">
            <mxRectangle width="30" height="30" as="alternateBounds" />
          </mxGeometry>
        </mxCell>
        <mxCell id="N1rbi3j3c_Pf0nSzD1yM-13" value="customer_id" style="shape=partialRectangle;connectable=0;fillColor=none;top=0;left=0;bottom=0;right=0;align=left;spacingLeft=6;overflow=hidden;fontFamily=Helvetica;textShadow=0;labelBorderColor=none;" vertex="1" parent="N1rbi3j3c_Pf0nSzD1yM-11">
          <mxGeometry x="30" width="150" height="30" as="geometry">
            <mxRectangle width="150" height="30" as="alternateBounds" />
          </mxGeometry>
        </mxCell>
        <mxCell id="N1rbi3j3c_Pf0nSzD1yM-14" value="" style="shape=tableRow;horizontal=0;startSize=0;swimlaneHead=0;swimlaneBody=0;fillColor=none;collapsible=0;dropTarget=0;points=[[0,0.5],[1,0.5]];portConstraint=eastwest;top=0;left=0;right=0;bottom=0;fontFamily=Helvetica;textShadow=0;labelBorderColor=none;" vertex="1" parent="N1rbi3j3c_Pf0nSzD1yM-7">
          <mxGeometry y="90" width="180" height="30" as="geometry" />
        </mxCell>
        <mxCell id="N1rbi3j3c_Pf0nSzD1yM-15" value="" style="shape=partialRectangle;connectable=0;fillColor=none;top=0;left=0;bottom=0;right=0;editable=1;overflow=hidden;fontFamily=Helvetica;textShadow=0;labelBorderColor=none;" vertex="1" parent="N1rbi3j3c_Pf0nSzD1yM-14">
          <mxGeometry width="30" height="30" as="geometry">
            <mxRectangle width="30" height="30" as="alternateBounds" />
          </mxGeometry>
        </mxCell>
        <mxCell id="N1rbi3j3c_Pf0nSzD1yM-16" value="customer_number" style="shape=partialRectangle;connectable=0;fillColor=none;top=0;left=0;bottom=0;right=0;align=left;spacingLeft=6;overflow=hidden;fontFamily=Helvetica;textShadow=0;labelBorderColor=none;" vertex="1" parent="N1rbi3j3c_Pf0nSzD1yM-14">
          <mxGeometry x="30" width="150" height="30" as="geometry">
            <mxRectangle width="150" height="30" as="alternateBounds" />
          </mxGeometry>
        </mxCell>
        <mxCell id="N1rbi3j3c_Pf0nSzD1yM-17" value="" style="shape=tableRow;horizontal=0;startSize=0;swimlaneHead=0;swimlaneBody=0;fillColor=none;collapsible=0;dropTarget=0;points=[[0,0.5],[1,0.5]];portConstraint=eastwest;top=0;left=0;right=0;bottom=0;fontFamily=Helvetica;textShadow=0;labelBorderColor=none;" vertex="1" parent="N1rbi3j3c_Pf0nSzD1yM-7">
          <mxGeometry y="120" width="180" height="30" as="geometry" />
        </mxCell>
        <mxCell id="N1rbi3j3c_Pf0nSzD1yM-18" value="" style="shape=partialRectangle;connectable=0;fillColor=none;top=0;left=0;bottom=0;right=0;editable=1;overflow=hidden;fontFamily=Helvetica;textShadow=0;labelBorderColor=none;" vertex="1" parent="N1rbi3j3c_Pf0nSzD1yM-17">
          <mxGeometry width="30" height="30" as="geometry">
            <mxRectangle width="30" height="30" as="alternateBounds" />
          </mxGeometry>
        </mxCell>
        <mxCell id="N1rbi3j3c_Pf0nSzD1yM-19" value="first_name" style="shape=partialRectangle;connectable=0;fillColor=none;top=0;left=0;bottom=0;right=0;align=left;spacingLeft=6;overflow=hidden;fontFamily=Helvetica;textShadow=0;labelBorderColor=none;" vertex="1" parent="N1rbi3j3c_Pf0nSzD1yM-17">
          <mxGeometry x="30" width="150" height="30" as="geometry">
            <mxRectangle width="150" height="30" as="alternateBounds" />
          </mxGeometry>
        </mxCell>
        <mxCell id="N1rbi3j3c_Pf0nSzD1yM-20" value="" style="shape=tableRow;horizontal=0;startSize=0;swimlaneHead=0;swimlaneBody=0;fillColor=none;collapsible=0;dropTarget=0;points=[[0,0.5],[1,0.5]];portConstraint=eastwest;top=0;left=0;right=0;bottom=0;fontFamily=Helvetica;textShadow=0;labelBorderColor=none;" vertex="1" parent="N1rbi3j3c_Pf0nSzD1yM-7">
          <mxGeometry y="150" width="180" height="30" as="geometry" />
        </mxCell>
        <mxCell id="N1rbi3j3c_Pf0nSzD1yM-21" value="" style="shape=partialRectangle;connectable=0;fillColor=none;top=0;left=0;bottom=0;right=0;editable=1;overflow=hidden;fontFamily=Helvetica;textShadow=0;labelBorderColor=none;" vertex="1" parent="N1rbi3j3c_Pf0nSzD1yM-20">
          <mxGeometry width="30" height="30" as="geometry">
            <mxRectangle width="30" height="30" as="alternateBounds" />
          </mxGeometry>
        </mxCell>
        <mxCell id="N1rbi3j3c_Pf0nSzD1yM-22" value="last_name" style="shape=partialRectangle;connectable=0;fillColor=none;top=0;left=0;bottom=0;right=0;align=left;spacingLeft=6;overflow=hidden;fontFamily=Helvetica;textShadow=0;labelBorderColor=none;" vertex="1" parent="N1rbi3j3c_Pf0nSzD1yM-20">
          <mxGeometry x="30" width="150" height="30" as="geometry">
            <mxRectangle width="150" height="30" as="alternateBounds" />
          </mxGeometry>
        </mxCell>
        <mxCell id="N1rbi3j3c_Pf0nSzD1yM-23" value="" style="shape=tableRow;horizontal=0;startSize=0;swimlaneHead=0;swimlaneBody=0;fillColor=none;collapsible=0;dropTarget=0;points=[[0,0.5],[1,0.5]];portConstraint=eastwest;top=0;left=0;right=0;bottom=0;fontFamily=Helvetica;textShadow=0;labelBorderColor=none;" vertex="1" parent="N1rbi3j3c_Pf0nSzD1yM-7">
          <mxGeometry y="180" width="180" height="30" as="geometry" />
        </mxCell>
        <mxCell id="N1rbi3j3c_Pf0nSzD1yM-24" value="" style="shape=partialRectangle;connectable=0;fillColor=none;top=0;left=0;bottom=0;right=0;editable=1;overflow=hidden;fontFamily=Helvetica;textShadow=0;labelBorderColor=none;" vertex="1" parent="N1rbi3j3c_Pf0nSzD1yM-23">
          <mxGeometry width="30" height="30" as="geometry">
            <mxRectangle width="30" height="30" as="alternateBounds" />
          </mxGeometry>
        </mxCell>
        <mxCell id="N1rbi3j3c_Pf0nSzD1yM-25" value="country" style="shape=partialRectangle;connectable=0;fillColor=none;top=0;left=0;bottom=0;right=0;align=left;spacingLeft=6;overflow=hidden;fontFamily=Helvetica;textShadow=0;labelBorderColor=none;" vertex="1" parent="N1rbi3j3c_Pf0nSzD1yM-23">
          <mxGeometry x="30" width="150" height="30" as="geometry">
            <mxRectangle width="150" height="30" as="alternateBounds" />
          </mxGeometry>
        </mxCell>
        <mxCell id="N1rbi3j3c_Pf0nSzD1yM-26" value="" style="shape=tableRow;horizontal=0;startSize=0;swimlaneHead=0;swimlaneBody=0;fillColor=none;collapsible=0;dropTarget=0;points=[[0,0.5],[1,0.5]];portConstraint=eastwest;top=0;left=0;right=0;bottom=0;fontFamily=Helvetica;textShadow=0;labelBorderColor=none;" vertex="1" parent="N1rbi3j3c_Pf0nSzD1yM-7">
          <mxGeometry y="210" width="180" height="30" as="geometry" />
        </mxCell>
        <mxCell id="N1rbi3j3c_Pf0nSzD1yM-27" value="" style="shape=partialRectangle;connectable=0;fillColor=none;top=0;left=0;bottom=0;right=0;editable=1;overflow=hidden;fontFamily=Helvetica;textShadow=0;labelBorderColor=none;" vertex="1" parent="N1rbi3j3c_Pf0nSzD1yM-26">
          <mxGeometry width="30" height="30" as="geometry">
            <mxRectangle width="30" height="30" as="alternateBounds" />
          </mxGeometry>
        </mxCell>
        <mxCell id="N1rbi3j3c_Pf0nSzD1yM-28" value="marital_status" style="shape=partialRectangle;connectable=0;fillColor=none;top=0;left=0;bottom=0;right=0;align=left;spacingLeft=6;overflow=hidden;fontFamily=Helvetica;textShadow=0;labelBorderColor=none;" vertex="1" parent="N1rbi3j3c_Pf0nSzD1yM-26">
          <mxGeometry x="30" width="150" height="30" as="geometry">
            <mxRectangle width="150" height="30" as="alternateBounds" />
          </mxGeometry>
        </mxCell>
        <mxCell id="N1rbi3j3c_Pf0nSzD1yM-29" value="" style="shape=tableRow;horizontal=0;startSize=0;swimlaneHead=0;swimlaneBody=0;fillColor=none;collapsible=0;dropTarget=0;points=[[0,0.5],[1,0.5]];portConstraint=eastwest;top=0;left=0;right=0;bottom=0;fontFamily=Helvetica;textShadow=0;labelBorderColor=none;" vertex="1" parent="N1rbi3j3c_Pf0nSzD1yM-7">
          <mxGeometry y="240" width="180" height="30" as="geometry" />
        </mxCell>
        <mxCell id="N1rbi3j3c_Pf0nSzD1yM-30" value="" style="shape=partialRectangle;connectable=0;fillColor=none;top=0;left=0;bottom=0;right=0;editable=1;overflow=hidden;fontFamily=Helvetica;textShadow=0;labelBorderColor=none;" vertex="1" parent="N1rbi3j3c_Pf0nSzD1yM-29">
          <mxGeometry width="30" height="30" as="geometry">
            <mxRectangle width="30" height="30" as="alternateBounds" />
          </mxGeometry>
        </mxCell>
        <mxCell id="N1rbi3j3c_Pf0nSzD1yM-31" value="gender" style="shape=partialRectangle;connectable=0;fillColor=none;top=0;left=0;bottom=0;right=0;align=left;spacingLeft=6;overflow=hidden;fontFamily=Helvetica;textShadow=0;labelBorderColor=none;" vertex="1" parent="N1rbi3j3c_Pf0nSzD1yM-29">
          <mxGeometry x="30" width="150" height="30" as="geometry">
            <mxRectangle width="150" height="30" as="alternateBounds" />
          </mxGeometry>
        </mxCell>
        <mxCell id="N1rbi3j3c_Pf0nSzD1yM-32" value="" style="shape=tableRow;horizontal=0;startSize=0;swimlaneHead=0;swimlaneBody=0;fillColor=none;collapsible=0;dropTarget=0;points=[[0,0.5],[1,0.5]];portConstraint=eastwest;top=0;left=0;right=0;bottom=0;fontFamily=Helvetica;textShadow=0;labelBorderColor=none;" vertex="1" parent="N1rbi3j3c_Pf0nSzD1yM-7">
          <mxGeometry y="270" width="180" height="30" as="geometry" />
        </mxCell>
        <mxCell id="N1rbi3j3c_Pf0nSzD1yM-33" value="" style="shape=partialRectangle;connectable=0;fillColor=none;top=0;left=0;bottom=0;right=0;editable=1;overflow=hidden;fontFamily=Helvetica;textShadow=0;labelBorderColor=none;" vertex="1" parent="N1rbi3j3c_Pf0nSzD1yM-32">
          <mxGeometry width="30" height="30" as="geometry">
            <mxRectangle width="30" height="30" as="alternateBounds" />
          </mxGeometry>
        </mxCell>
        <mxCell id="N1rbi3j3c_Pf0nSzD1yM-34" value="birthdate" style="shape=partialRectangle;connectable=0;fillColor=none;top=0;left=0;bottom=0;right=0;align=left;spacingLeft=6;overflow=hidden;fontFamily=Helvetica;textShadow=0;labelBorderColor=none;" vertex="1" parent="N1rbi3j3c_Pf0nSzD1yM-32">
          <mxGeometry x="30" width="150" height="30" as="geometry">
            <mxRectangle width="150" height="30" as="alternateBounds" />
          </mxGeometry>
        </mxCell>
        <mxCell id="N1rbi3j3c_Pf0nSzD1yM-35" value="" style="shape=tableRow;horizontal=0;startSize=0;swimlaneHead=0;swimlaneBody=0;fillColor=none;collapsible=0;dropTarget=0;points=[[0,0.5],[1,0.5]];portConstraint=eastwest;top=0;left=0;right=0;bottom=0;fontFamily=Helvetica;textShadow=0;labelBorderColor=none;" vertex="1" parent="N1rbi3j3c_Pf0nSzD1yM-7">
          <mxGeometry y="300" width="180" height="30" as="geometry" />
        </mxCell>
        <mxCell id="N1rbi3j3c_Pf0nSzD1yM-36" value="" style="shape=partialRectangle;connectable=0;fillColor=none;top=0;left=0;bottom=0;right=0;editable=1;overflow=hidden;fontFamily=Helvetica;textShadow=0;labelBorderColor=none;" vertex="1" parent="N1rbi3j3c_Pf0nSzD1yM-35">
          <mxGeometry width="30" height="30" as="geometry">
            <mxRectangle width="30" height="30" as="alternateBounds" />
          </mxGeometry>
        </mxCell>
        <mxCell id="N1rbi3j3c_Pf0nSzD1yM-37" value="Country" style="shape=partialRectangle;connectable=0;fillColor=none;top=0;left=0;bottom=0;right=0;align=left;spacingLeft=6;overflow=hidden;fontFamily=Helvetica;textShadow=0;labelBorderColor=none;" vertex="1" parent="N1rbi3j3c_Pf0nSzD1yM-35">
          <mxGeometry x="30" width="150" height="30" as="geometry">
            <mxRectangle width="150" height="30" as="alternateBounds" />
          </mxGeometry>
        </mxCell>
        <mxCell id="N1rbi3j3c_Pf0nSzD1yM-38" value="gold.dim_products" style="shape=table;startSize=30;container=1;collapsible=1;childLayout=tableLayout;fixedRows=1;rowLines=0;fontStyle=1;align=center;resizeLast=1;fontFamily=Helvetica;textShadow=0;labelBorderColor=none;fillColor=#fff2cc;strokeColor=#d6b656;" vertex="1" parent="1">
          <mxGeometry x="440" y="1015" width="180" height="330" as="geometry" />
        </mxCell>
        <mxCell id="N1rbi3j3c_Pf0nSzD1yM-39" value="" style="shape=tableRow;horizontal=0;startSize=0;swimlaneHead=0;swimlaneBody=0;fillColor=none;collapsible=0;dropTarget=0;points=[[0,0.5],[1,0.5]];portConstraint=eastwest;top=0;left=0;right=0;bottom=1;fontFamily=Helvetica;textShadow=0;labelBorderColor=none;" vertex="1" parent="N1rbi3j3c_Pf0nSzD1yM-38">
          <mxGeometry y="30" width="180" height="30" as="geometry" />
        </mxCell>
        <mxCell id="N1rbi3j3c_Pf0nSzD1yM-40" value="PK" style="shape=partialRectangle;connectable=0;fillColor=none;top=0;left=0;bottom=0;right=0;fontStyle=1;overflow=hidden;fontFamily=Helvetica;textShadow=0;labelBorderColor=none;" vertex="1" parent="N1rbi3j3c_Pf0nSzD1yM-39">
          <mxGeometry width="30" height="30" as="geometry">
            <mxRectangle width="30" height="30" as="alternateBounds" />
          </mxGeometry>
        </mxCell>
        <mxCell id="N1rbi3j3c_Pf0nSzD1yM-41" value="product_key" style="shape=partialRectangle;connectable=0;fillColor=none;top=0;left=0;bottom=0;right=0;align=left;spacingLeft=6;fontStyle=5;overflow=hidden;fontFamily=Helvetica;textShadow=0;labelBorderColor=none;" vertex="1" parent="N1rbi3j3c_Pf0nSzD1yM-39">
          <mxGeometry x="30" width="150" height="30" as="geometry">
            <mxRectangle width="150" height="30" as="alternateBounds" />
          </mxGeometry>
        </mxCell>
        <mxCell id="N1rbi3j3c_Pf0nSzD1yM-42" value="" style="shape=tableRow;horizontal=0;startSize=0;swimlaneHead=0;swimlaneBody=0;fillColor=none;collapsible=0;dropTarget=0;points=[[0,0.5],[1,0.5]];portConstraint=eastwest;top=0;left=0;right=0;bottom=0;fontFamily=Helvetica;textShadow=0;labelBorderColor=none;" vertex="1" parent="N1rbi3j3c_Pf0nSzD1yM-38">
          <mxGeometry y="60" width="180" height="30" as="geometry" />
        </mxCell>
        <mxCell id="N1rbi3j3c_Pf0nSzD1yM-43" value="" style="shape=partialRectangle;connectable=0;fillColor=none;top=0;left=0;bottom=0;right=0;editable=1;overflow=hidden;fontFamily=Helvetica;textShadow=0;labelBorderColor=none;" vertex="1" parent="N1rbi3j3c_Pf0nSzD1yM-42">
          <mxGeometry width="30" height="30" as="geometry">
            <mxRectangle width="30" height="30" as="alternateBounds" />
          </mxGeometry>
        </mxCell>
        <mxCell id="N1rbi3j3c_Pf0nSzD1yM-44" value="product_id" style="shape=partialRectangle;connectable=0;fillColor=none;top=0;left=0;bottom=0;right=0;align=left;spacingLeft=6;overflow=hidden;fontFamily=Helvetica;textShadow=0;labelBorderColor=none;" vertex="1" parent="N1rbi3j3c_Pf0nSzD1yM-42">
          <mxGeometry x="30" width="150" height="30" as="geometry">
            <mxRectangle width="150" height="30" as="alternateBounds" />
          </mxGeometry>
        </mxCell>
        <mxCell id="N1rbi3j3c_Pf0nSzD1yM-45" value="" style="shape=tableRow;horizontal=0;startSize=0;swimlaneHead=0;swimlaneBody=0;fillColor=none;collapsible=0;dropTarget=0;points=[[0,0.5],[1,0.5]];portConstraint=eastwest;top=0;left=0;right=0;bottom=0;fontFamily=Helvetica;textShadow=0;labelBorderColor=none;" vertex="1" parent="N1rbi3j3c_Pf0nSzD1yM-38">
          <mxGeometry y="90" width="180" height="30" as="geometry" />
        </mxCell>
        <mxCell id="N1rbi3j3c_Pf0nSzD1yM-46" value="" style="shape=partialRectangle;connectable=0;fillColor=none;top=0;left=0;bottom=0;right=0;editable=1;overflow=hidden;fontFamily=Helvetica;textShadow=0;labelBorderColor=none;" vertex="1" parent="N1rbi3j3c_Pf0nSzD1yM-45">
          <mxGeometry width="30" height="30" as="geometry">
            <mxRectangle width="30" height="30" as="alternateBounds" />
          </mxGeometry>
        </mxCell>
        <mxCell id="N1rbi3j3c_Pf0nSzD1yM-47" value="product_number" style="shape=partialRectangle;connectable=0;fillColor=none;top=0;left=0;bottom=0;right=0;align=left;spacingLeft=6;overflow=hidden;fontFamily=Helvetica;textShadow=0;labelBorderColor=none;" vertex="1" parent="N1rbi3j3c_Pf0nSzD1yM-45">
          <mxGeometry x="30" width="150" height="30" as="geometry">
            <mxRectangle width="150" height="30" as="alternateBounds" />
          </mxGeometry>
        </mxCell>
        <mxCell id="N1rbi3j3c_Pf0nSzD1yM-48" value="" style="shape=tableRow;horizontal=0;startSize=0;swimlaneHead=0;swimlaneBody=0;fillColor=none;collapsible=0;dropTarget=0;points=[[0,0.5],[1,0.5]];portConstraint=eastwest;top=0;left=0;right=0;bottom=0;fontFamily=Helvetica;textShadow=0;labelBorderColor=none;" vertex="1" parent="N1rbi3j3c_Pf0nSzD1yM-38">
          <mxGeometry y="120" width="180" height="30" as="geometry" />
        </mxCell>
        <mxCell id="N1rbi3j3c_Pf0nSzD1yM-49" value="" style="shape=partialRectangle;connectable=0;fillColor=none;top=0;left=0;bottom=0;right=0;editable=1;overflow=hidden;fontFamily=Helvetica;textShadow=0;labelBorderColor=none;" vertex="1" parent="N1rbi3j3c_Pf0nSzD1yM-48">
          <mxGeometry width="30" height="30" as="geometry">
            <mxRectangle width="30" height="30" as="alternateBounds" />
          </mxGeometry>
        </mxCell>
        <mxCell id="N1rbi3j3c_Pf0nSzD1yM-50" value="category_id" style="shape=partialRectangle;connectable=0;fillColor=none;top=0;left=0;bottom=0;right=0;align=left;spacingLeft=6;overflow=hidden;fontFamily=Helvetica;textShadow=0;labelBorderColor=none;" vertex="1" parent="N1rbi3j3c_Pf0nSzD1yM-48">
          <mxGeometry x="30" width="150" height="30" as="geometry">
            <mxRectangle width="150" height="30" as="alternateBounds" />
          </mxGeometry>
        </mxCell>
        <mxCell id="N1rbi3j3c_Pf0nSzD1yM-51" value="" style="shape=tableRow;horizontal=0;startSize=0;swimlaneHead=0;swimlaneBody=0;fillColor=none;collapsible=0;dropTarget=0;points=[[0,0.5],[1,0.5]];portConstraint=eastwest;top=0;left=0;right=0;bottom=0;fontFamily=Helvetica;textShadow=0;labelBorderColor=none;" vertex="1" parent="N1rbi3j3c_Pf0nSzD1yM-38">
          <mxGeometry y="150" width="180" height="30" as="geometry" />
        </mxCell>
        <mxCell id="N1rbi3j3c_Pf0nSzD1yM-52" value="" style="shape=partialRectangle;connectable=0;fillColor=none;top=0;left=0;bottom=0;right=0;editable=1;overflow=hidden;fontFamily=Helvetica;textShadow=0;labelBorderColor=none;" vertex="1" parent="N1rbi3j3c_Pf0nSzD1yM-51">
          <mxGeometry width="30" height="30" as="geometry">
            <mxRectangle width="30" height="30" as="alternateBounds" />
          </mxGeometry>
        </mxCell>
        <mxCell id="N1rbi3j3c_Pf0nSzD1yM-53" value="category" style="shape=partialRectangle;connectable=0;fillColor=none;top=0;left=0;bottom=0;right=0;align=left;spacingLeft=6;overflow=hidden;fontFamily=Helvetica;textShadow=0;labelBorderColor=none;" vertex="1" parent="N1rbi3j3c_Pf0nSzD1yM-51">
          <mxGeometry x="30" width="150" height="30" as="geometry">
            <mxRectangle width="150" height="30" as="alternateBounds" />
          </mxGeometry>
        </mxCell>
        <mxCell id="N1rbi3j3c_Pf0nSzD1yM-54" value="" style="shape=tableRow;horizontal=0;startSize=0;swimlaneHead=0;swimlaneBody=0;fillColor=none;collapsible=0;dropTarget=0;points=[[0,0.5],[1,0.5]];portConstraint=eastwest;top=0;left=0;right=0;bottom=0;fontFamily=Helvetica;textShadow=0;labelBorderColor=none;" vertex="1" parent="N1rbi3j3c_Pf0nSzD1yM-38">
          <mxGeometry y="180" width="180" height="30" as="geometry" />
        </mxCell>
        <mxCell id="N1rbi3j3c_Pf0nSzD1yM-55" value="" style="shape=partialRectangle;connectable=0;fillColor=none;top=0;left=0;bottom=0;right=0;editable=1;overflow=hidden;fontFamily=Helvetica;textShadow=0;labelBorderColor=none;" vertex="1" parent="N1rbi3j3c_Pf0nSzD1yM-54">
          <mxGeometry width="30" height="30" as="geometry">
            <mxRectangle width="30" height="30" as="alternateBounds" />
          </mxGeometry>
        </mxCell>
        <mxCell id="N1rbi3j3c_Pf0nSzD1yM-56" value="sub_category" style="shape=partialRectangle;connectable=0;fillColor=none;top=0;left=0;bottom=0;right=0;align=left;spacingLeft=6;overflow=hidden;fontFamily=Helvetica;textShadow=0;labelBorderColor=none;" vertex="1" parent="N1rbi3j3c_Pf0nSzD1yM-54">
          <mxGeometry x="30" width="150" height="30" as="geometry">
            <mxRectangle width="150" height="30" as="alternateBounds" />
          </mxGeometry>
        </mxCell>
        <mxCell id="N1rbi3j3c_Pf0nSzD1yM-57" value="" style="shape=tableRow;horizontal=0;startSize=0;swimlaneHead=0;swimlaneBody=0;fillColor=none;collapsible=0;dropTarget=0;points=[[0,0.5],[1,0.5]];portConstraint=eastwest;top=0;left=0;right=0;bottom=0;fontFamily=Helvetica;textShadow=0;labelBorderColor=none;" vertex="1" parent="N1rbi3j3c_Pf0nSzD1yM-38">
          <mxGeometry y="210" width="180" height="30" as="geometry" />
        </mxCell>
        <mxCell id="N1rbi3j3c_Pf0nSzD1yM-58" value="" style="shape=partialRectangle;connectable=0;fillColor=none;top=0;left=0;bottom=0;right=0;editable=1;overflow=hidden;fontFamily=Helvetica;textShadow=0;labelBorderColor=none;" vertex="1" parent="N1rbi3j3c_Pf0nSzD1yM-57">
          <mxGeometry width="30" height="30" as="geometry">
            <mxRectangle width="30" height="30" as="alternateBounds" />
          </mxGeometry>
        </mxCell>
        <mxCell id="N1rbi3j3c_Pf0nSzD1yM-59" value="maintenance" style="shape=partialRectangle;connectable=0;fillColor=none;top=0;left=0;bottom=0;right=0;align=left;spacingLeft=6;overflow=hidden;fontFamily=Helvetica;textShadow=0;labelBorderColor=none;" vertex="1" parent="N1rbi3j3c_Pf0nSzD1yM-57">
          <mxGeometry x="30" width="150" height="30" as="geometry">
            <mxRectangle width="150" height="30" as="alternateBounds" />
          </mxGeometry>
        </mxCell>
        <mxCell id="N1rbi3j3c_Pf0nSzD1yM-60" value="" style="shape=tableRow;horizontal=0;startSize=0;swimlaneHead=0;swimlaneBody=0;fillColor=none;collapsible=0;dropTarget=0;points=[[0,0.5],[1,0.5]];portConstraint=eastwest;top=0;left=0;right=0;bottom=0;fontFamily=Helvetica;textShadow=0;labelBorderColor=none;" vertex="1" parent="N1rbi3j3c_Pf0nSzD1yM-38">
          <mxGeometry y="240" width="180" height="30" as="geometry" />
        </mxCell>
        <mxCell id="N1rbi3j3c_Pf0nSzD1yM-61" value="" style="shape=partialRectangle;connectable=0;fillColor=none;top=0;left=0;bottom=0;right=0;editable=1;overflow=hidden;fontFamily=Helvetica;textShadow=0;labelBorderColor=none;" vertex="1" parent="N1rbi3j3c_Pf0nSzD1yM-60">
          <mxGeometry width="30" height="30" as="geometry">
            <mxRectangle width="30" height="30" as="alternateBounds" />
          </mxGeometry>
        </mxCell>
        <mxCell id="N1rbi3j3c_Pf0nSzD1yM-62" value="cost" style="shape=partialRectangle;connectable=0;fillColor=none;top=0;left=0;bottom=0;right=0;align=left;spacingLeft=6;overflow=hidden;fontFamily=Helvetica;textShadow=0;labelBorderColor=none;" vertex="1" parent="N1rbi3j3c_Pf0nSzD1yM-60">
          <mxGeometry x="30" width="150" height="30" as="geometry">
            <mxRectangle width="150" height="30" as="alternateBounds" />
          </mxGeometry>
        </mxCell>
        <mxCell id="N1rbi3j3c_Pf0nSzD1yM-63" value="" style="shape=tableRow;horizontal=0;startSize=0;swimlaneHead=0;swimlaneBody=0;fillColor=none;collapsible=0;dropTarget=0;points=[[0,0.5],[1,0.5]];portConstraint=eastwest;top=0;left=0;right=0;bottom=0;fontFamily=Helvetica;textShadow=0;labelBorderColor=none;" vertex="1" parent="N1rbi3j3c_Pf0nSzD1yM-38">
          <mxGeometry y="270" width="180" height="30" as="geometry" />
        </mxCell>
        <mxCell id="N1rbi3j3c_Pf0nSzD1yM-64" value="" style="shape=partialRectangle;connectable=0;fillColor=none;top=0;left=0;bottom=0;right=0;editable=1;overflow=hidden;fontFamily=Helvetica;textShadow=0;labelBorderColor=none;" vertex="1" parent="N1rbi3j3c_Pf0nSzD1yM-63">
          <mxGeometry width="30" height="30" as="geometry">
            <mxRectangle width="30" height="30" as="alternateBounds" />
          </mxGeometry>
        </mxCell>
        <mxCell id="N1rbi3j3c_Pf0nSzD1yM-65" value="product_line" style="shape=partialRectangle;connectable=0;fillColor=none;top=0;left=0;bottom=0;right=0;align=left;spacingLeft=6;overflow=hidden;fontFamily=Helvetica;textShadow=0;labelBorderColor=none;" vertex="1" parent="N1rbi3j3c_Pf0nSzD1yM-63">
          <mxGeometry x="30" width="150" height="30" as="geometry">
            <mxRectangle width="150" height="30" as="alternateBounds" />
          </mxGeometry>
        </mxCell>
        <mxCell id="N1rbi3j3c_Pf0nSzD1yM-66" value="" style="shape=tableRow;horizontal=0;startSize=0;swimlaneHead=0;swimlaneBody=0;fillColor=none;collapsible=0;dropTarget=0;points=[[0,0.5],[1,0.5]];portConstraint=eastwest;top=0;left=0;right=0;bottom=0;fontFamily=Helvetica;textShadow=0;labelBorderColor=none;" vertex="1" parent="N1rbi3j3c_Pf0nSzD1yM-38">
          <mxGeometry y="300" width="180" height="30" as="geometry" />
        </mxCell>
        <mxCell id="N1rbi3j3c_Pf0nSzD1yM-67" value="" style="shape=partialRectangle;connectable=0;fillColor=none;top=0;left=0;bottom=0;right=0;editable=1;overflow=hidden;fontFamily=Helvetica;textShadow=0;labelBorderColor=none;" vertex="1" parent="N1rbi3j3c_Pf0nSzD1yM-66">
          <mxGeometry width="30" height="30" as="geometry">
            <mxRectangle width="30" height="30" as="alternateBounds" />
          </mxGeometry>
        </mxCell>
        <mxCell id="N1rbi3j3c_Pf0nSzD1yM-68" value="start_date" style="shape=partialRectangle;connectable=0;fillColor=none;top=0;left=0;bottom=0;right=0;align=left;spacingLeft=6;overflow=hidden;fontFamily=Helvetica;textShadow=0;labelBorderColor=none;" vertex="1" parent="N1rbi3j3c_Pf0nSzD1yM-66">
          <mxGeometry x="30" width="150" height="30" as="geometry">
            <mxRectangle width="150" height="30" as="alternateBounds" />
          </mxGeometry>
        </mxCell>
        <mxCell id="N1rbi3j3c_Pf0nSzD1yM-69" value="gold.fact_sales" style="shape=table;startSize=30;container=1;collapsible=1;childLayout=tableLayout;fixedRows=1;rowLines=0;fontStyle=1;align=center;resizeLast=1;fontFamily=Helvetica;textShadow=0;labelBorderColor=none;fillColor=#dae8fc;strokeColor=#6c8ebf;" vertex="1" parent="1">
          <mxGeometry x="150" y="1015" width="180" height="300" as="geometry" />
        </mxCell>
        <mxCell id="N1rbi3j3c_Pf0nSzD1yM-70" value="" style="shape=tableRow;horizontal=0;startSize=0;swimlaneHead=0;swimlaneBody=0;fillColor=none;collapsible=0;dropTarget=0;points=[[0,0.5],[1,0.5]];portConstraint=eastwest;top=0;left=0;right=0;bottom=1;fontFamily=Helvetica;textShadow=0;labelBorderColor=none;" vertex="1" parent="N1rbi3j3c_Pf0nSzD1yM-69">
          <mxGeometry y="30" width="180" height="30" as="geometry" />
        </mxCell>
        <mxCell id="N1rbi3j3c_Pf0nSzD1yM-71" value="PK" style="shape=partialRectangle;connectable=0;fillColor=none;top=0;left=0;bottom=0;right=0;fontStyle=1;overflow=hidden;fontFamily=Helvetica;textShadow=0;labelBorderColor=none;" vertex="1" parent="N1rbi3j3c_Pf0nSzD1yM-70">
          <mxGeometry width="40" height="30" as="geometry">
            <mxRectangle width="40" height="30" as="alternateBounds" />
          </mxGeometry>
        </mxCell>
        <mxCell id="N1rbi3j3c_Pf0nSzD1yM-72" value="order_number" style="shape=partialRectangle;connectable=0;fillColor=none;top=0;left=0;bottom=0;right=0;align=left;spacingLeft=6;fontStyle=5;overflow=hidden;fontFamily=Helvetica;textShadow=0;labelBorderColor=none;" vertex="1" parent="N1rbi3j3c_Pf0nSzD1yM-70">
          <mxGeometry x="40" width="140" height="30" as="geometry">
            <mxRectangle width="140" height="30" as="alternateBounds" />
          </mxGeometry>
        </mxCell>
        <mxCell id="N1rbi3j3c_Pf0nSzD1yM-73" value="" style="shape=tableRow;horizontal=0;startSize=0;swimlaneHead=0;swimlaneBody=0;fillColor=none;collapsible=0;dropTarget=0;points=[[0,0.5],[1,0.5]];portConstraint=eastwest;top=0;left=0;right=0;bottom=0;fontFamily=Helvetica;textShadow=0;labelBorderColor=none;" vertex="1" parent="N1rbi3j3c_Pf0nSzD1yM-69">
          <mxGeometry y="60" width="180" height="30" as="geometry" />
        </mxCell>
        <mxCell id="N1rbi3j3c_Pf0nSzD1yM-74" value="FK 1" style="shape=partialRectangle;connectable=0;fillColor=none;top=0;left=0;bottom=0;right=0;editable=1;overflow=hidden;fontFamily=Helvetica;textShadow=0;labelBorderColor=none;" vertex="1" parent="N1rbi3j3c_Pf0nSzD1yM-73">
          <mxGeometry width="40" height="30" as="geometry">
            <mxRectangle width="40" height="30" as="alternateBounds" />
          </mxGeometry>
        </mxCell>
        <mxCell id="N1rbi3j3c_Pf0nSzD1yM-75" value="product_key" style="shape=partialRectangle;connectable=0;fillColor=none;top=0;left=0;bottom=0;right=0;align=left;spacingLeft=6;overflow=hidden;fontFamily=Helvetica;textShadow=0;labelBorderColor=none;" vertex="1" parent="N1rbi3j3c_Pf0nSzD1yM-73">
          <mxGeometry x="40" width="140" height="30" as="geometry">
            <mxRectangle width="140" height="30" as="alternateBounds" />
          </mxGeometry>
        </mxCell>
        <mxCell id="N1rbi3j3c_Pf0nSzD1yM-76" value="" style="shape=tableRow;horizontal=0;startSize=0;swimlaneHead=0;swimlaneBody=0;fillColor=none;collapsible=0;dropTarget=0;points=[[0,0.5],[1,0.5]];portConstraint=eastwest;top=0;left=0;right=0;bottom=0;fontFamily=Helvetica;textShadow=0;labelBorderColor=none;" vertex="1" parent="N1rbi3j3c_Pf0nSzD1yM-69">
          <mxGeometry y="90" width="180" height="30" as="geometry" />
        </mxCell>
        <mxCell id="N1rbi3j3c_Pf0nSzD1yM-77" value="FK 2" style="shape=partialRectangle;connectable=0;fillColor=none;top=0;left=0;bottom=0;right=0;editable=1;overflow=hidden;fontFamily=Helvetica;textShadow=0;labelBorderColor=none;" vertex="1" parent="N1rbi3j3c_Pf0nSzD1yM-76">
          <mxGeometry width="40" height="30" as="geometry">
            <mxRectangle width="40" height="30" as="alternateBounds" />
          </mxGeometry>
        </mxCell>
        <mxCell id="N1rbi3j3c_Pf0nSzD1yM-78" value="customer_key    " style="shape=partialRectangle;connectable=0;fillColor=none;top=0;left=0;bottom=0;right=0;align=left;spacingLeft=6;overflow=hidden;fontFamily=Helvetica;textShadow=0;labelBorderColor=none;" vertex="1" parent="N1rbi3j3c_Pf0nSzD1yM-76">
          <mxGeometry x="40" width="140" height="30" as="geometry">
            <mxRectangle width="140" height="30" as="alternateBounds" />
          </mxGeometry>
        </mxCell>
        <mxCell id="N1rbi3j3c_Pf0nSzD1yM-79" value="" style="shape=tableRow;horizontal=0;startSize=0;swimlaneHead=0;swimlaneBody=0;fillColor=none;collapsible=0;dropTarget=0;points=[[0,0.5],[1,0.5]];portConstraint=eastwest;top=0;left=0;right=0;bottom=0;fontFamily=Helvetica;textShadow=0;labelBorderColor=none;" vertex="1" parent="N1rbi3j3c_Pf0nSzD1yM-69">
          <mxGeometry y="120" width="180" height="30" as="geometry" />
        </mxCell>
        <mxCell id="N1rbi3j3c_Pf0nSzD1yM-80" value="" style="shape=partialRectangle;connectable=0;fillColor=none;top=0;left=0;bottom=0;right=0;editable=1;overflow=hidden;fontFamily=Helvetica;textShadow=0;labelBorderColor=none;" vertex="1" parent="N1rbi3j3c_Pf0nSzD1yM-79">
          <mxGeometry width="40" height="30" as="geometry">
            <mxRectangle width="40" height="30" as="alternateBounds" />
          </mxGeometry>
        </mxCell>
        <mxCell id="N1rbi3j3c_Pf0nSzD1yM-81" value="order_date" style="shape=partialRectangle;connectable=0;fillColor=none;top=0;left=0;bottom=0;right=0;align=left;spacingLeft=6;overflow=hidden;fontFamily=Helvetica;textShadow=0;labelBorderColor=none;" vertex="1" parent="N1rbi3j3c_Pf0nSzD1yM-79">
          <mxGeometry x="40" width="140" height="30" as="geometry">
            <mxRectangle width="140" height="30" as="alternateBounds" />
          </mxGeometry>
        </mxCell>
        <mxCell id="N1rbi3j3c_Pf0nSzD1yM-82" value="" style="shape=tableRow;horizontal=0;startSize=0;swimlaneHead=0;swimlaneBody=0;fillColor=none;collapsible=0;dropTarget=0;points=[[0,0.5],[1,0.5]];portConstraint=eastwest;top=0;left=0;right=0;bottom=0;fontFamily=Helvetica;textShadow=0;labelBorderColor=none;" vertex="1" parent="N1rbi3j3c_Pf0nSzD1yM-69">
          <mxGeometry y="150" width="180" height="30" as="geometry" />
        </mxCell>
        <mxCell id="N1rbi3j3c_Pf0nSzD1yM-83" value="" style="shape=partialRectangle;connectable=0;fillColor=none;top=0;left=0;bottom=0;right=0;editable=1;overflow=hidden;fontFamily=Helvetica;textShadow=0;labelBorderColor=none;" vertex="1" parent="N1rbi3j3c_Pf0nSzD1yM-82">
          <mxGeometry width="40" height="30" as="geometry">
            <mxRectangle width="40" height="30" as="alternateBounds" />
          </mxGeometry>
        </mxCell>
        <mxCell id="N1rbi3j3c_Pf0nSzD1yM-84" value="ship_date" style="shape=partialRectangle;connectable=0;fillColor=none;top=0;left=0;bottom=0;right=0;align=left;spacingLeft=6;overflow=hidden;fontFamily=Helvetica;textShadow=0;labelBorderColor=none;" vertex="1" parent="N1rbi3j3c_Pf0nSzD1yM-82">
          <mxGeometry x="40" width="140" height="30" as="geometry">
            <mxRectangle width="140" height="30" as="alternateBounds" />
          </mxGeometry>
        </mxCell>
        <mxCell id="N1rbi3j3c_Pf0nSzD1yM-85" value="" style="shape=tableRow;horizontal=0;startSize=0;swimlaneHead=0;swimlaneBody=0;fillColor=none;collapsible=0;dropTarget=0;points=[[0,0.5],[1,0.5]];portConstraint=eastwest;top=0;left=0;right=0;bottom=0;fontFamily=Helvetica;textShadow=0;labelBorderColor=none;" vertex="1" parent="N1rbi3j3c_Pf0nSzD1yM-69">
          <mxGeometry y="180" width="180" height="30" as="geometry" />
        </mxCell>
        <mxCell id="N1rbi3j3c_Pf0nSzD1yM-86" value="" style="shape=partialRectangle;connectable=0;fillColor=none;top=0;left=0;bottom=0;right=0;editable=1;overflow=hidden;fontFamily=Helvetica;textShadow=0;labelBorderColor=none;" vertex="1" parent="N1rbi3j3c_Pf0nSzD1yM-85">
          <mxGeometry width="40" height="30" as="geometry">
            <mxRectangle width="40" height="30" as="alternateBounds" />
          </mxGeometry>
        </mxCell>
        <mxCell id="N1rbi3j3c_Pf0nSzD1yM-87" value="due_date" style="shape=partialRectangle;connectable=0;fillColor=none;top=0;left=0;bottom=0;right=0;align=left;spacingLeft=6;overflow=hidden;fontFamily=Helvetica;textShadow=0;labelBorderColor=none;" vertex="1" parent="N1rbi3j3c_Pf0nSzD1yM-85">
          <mxGeometry x="40" width="140" height="30" as="geometry">
            <mxRectangle width="140" height="30" as="alternateBounds" />
          </mxGeometry>
        </mxCell>
        <mxCell id="N1rbi3j3c_Pf0nSzD1yM-88" value="" style="shape=tableRow;horizontal=0;startSize=0;swimlaneHead=0;swimlaneBody=0;fillColor=none;collapsible=0;dropTarget=0;points=[[0,0.5],[1,0.5]];portConstraint=eastwest;top=0;left=0;right=0;bottom=0;fontFamily=Helvetica;textShadow=0;labelBorderColor=none;" vertex="1" parent="N1rbi3j3c_Pf0nSzD1yM-69">
          <mxGeometry y="210" width="180" height="30" as="geometry" />
        </mxCell>
        <mxCell id="N1rbi3j3c_Pf0nSzD1yM-89" value="" style="shape=partialRectangle;connectable=0;fillColor=none;top=0;left=0;bottom=0;right=0;editable=1;overflow=hidden;fontFamily=Helvetica;textShadow=0;labelBorderColor=none;" vertex="1" parent="N1rbi3j3c_Pf0nSzD1yM-88">
          <mxGeometry width="40" height="30" as="geometry">
            <mxRectangle width="40" height="30" as="alternateBounds" />
          </mxGeometry>
        </mxCell>
        <mxCell id="N1rbi3j3c_Pf0nSzD1yM-90" value="sales_amount" style="shape=partialRectangle;connectable=0;fillColor=none;top=0;left=0;bottom=0;right=0;align=left;spacingLeft=6;overflow=hidden;fontFamily=Helvetica;textShadow=0;labelBorderColor=none;" vertex="1" parent="N1rbi3j3c_Pf0nSzD1yM-88">
          <mxGeometry x="40" width="140" height="30" as="geometry">
            <mxRectangle width="140" height="30" as="alternateBounds" />
          </mxGeometry>
        </mxCell>
        <mxCell id="N1rbi3j3c_Pf0nSzD1yM-91" value="" style="shape=tableRow;horizontal=0;startSize=0;swimlaneHead=0;swimlaneBody=0;fillColor=none;collapsible=0;dropTarget=0;points=[[0,0.5],[1,0.5]];portConstraint=eastwest;top=0;left=0;right=0;bottom=0;fontFamily=Helvetica;textShadow=0;labelBorderColor=none;" vertex="1" parent="N1rbi3j3c_Pf0nSzD1yM-69">
          <mxGeometry y="240" width="180" height="30" as="geometry" />
        </mxCell>
        <mxCell id="N1rbi3j3c_Pf0nSzD1yM-92" value="" style="shape=partialRectangle;connectable=0;fillColor=none;top=0;left=0;bottom=0;right=0;editable=1;overflow=hidden;fontFamily=Helvetica;textShadow=0;labelBorderColor=none;" vertex="1" parent="N1rbi3j3c_Pf0nSzD1yM-91">
          <mxGeometry width="40" height="30" as="geometry">
            <mxRectangle width="40" height="30" as="alternateBounds" />
          </mxGeometry>
        </mxCell>
        <mxCell id="N1rbi3j3c_Pf0nSzD1yM-93" value="quantity" style="shape=partialRectangle;connectable=0;fillColor=none;top=0;left=0;bottom=0;right=0;align=left;spacingLeft=6;overflow=hidden;fontFamily=Helvetica;textShadow=0;labelBorderColor=none;" vertex="1" parent="N1rbi3j3c_Pf0nSzD1yM-91">
          <mxGeometry x="40" width="140" height="30" as="geometry">
            <mxRectangle width="140" height="30" as="alternateBounds" />
          </mxGeometry>
        </mxCell>
        <mxCell id="N1rbi3j3c_Pf0nSzD1yM-94" value="" style="shape=tableRow;horizontal=0;startSize=0;swimlaneHead=0;swimlaneBody=0;fillColor=none;collapsible=0;dropTarget=0;points=[[0,0.5],[1,0.5]];portConstraint=eastwest;top=0;left=0;right=0;bottom=0;fontFamily=Helvetica;textShadow=0;labelBorderColor=none;" vertex="1" parent="N1rbi3j3c_Pf0nSzD1yM-69">
          <mxGeometry y="270" width="180" height="30" as="geometry" />
        </mxCell>
        <mxCell id="N1rbi3j3c_Pf0nSzD1yM-95" value="" style="shape=partialRectangle;connectable=0;fillColor=none;top=0;left=0;bottom=0;right=0;editable=1;overflow=hidden;fontFamily=Helvetica;textShadow=0;labelBorderColor=none;" vertex="1" parent="N1rbi3j3c_Pf0nSzD1yM-94">
          <mxGeometry width="40" height="30" as="geometry">
            <mxRectangle width="40" height="30" as="alternateBounds" />
          </mxGeometry>
        </mxCell>
        <mxCell id="N1rbi3j3c_Pf0nSzD1yM-96" value="price" style="shape=partialRectangle;connectable=0;fillColor=none;top=0;left=0;bottom=0;right=0;align=left;spacingLeft=6;overflow=hidden;fontFamily=Helvetica;textShadow=0;labelBorderColor=none;" vertex="1" parent="N1rbi3j3c_Pf0nSzD1yM-94">
          <mxGeometry x="40" width="140" height="30" as="geometry">
            <mxRectangle width="140" height="30" as="alternateBounds" />
          </mxGeometry>
        </mxCell>
        <mxCell id="N1rbi3j3c_Pf0nSzD1yM-104" value="" style="edgeStyle=entityRelationEdgeStyle;fontSize=12;html=1;endArrow=ERzeroToOne;startArrow=ERmandOne;rounded=0;fontFamily=Architects Daughter;fontSource=https%3A%2F%2Ffonts.googleapis.com%2Fcss%3Ffamily%3DArchitects%2BDaughter;startSize=14;endSize=14;sourcePerimeterSpacing=8;targetPerimeterSpacing=8;curved=1;entryX=0;entryY=0.167;entryDx=0;entryDy=0;entryPerimeter=0;exitX=1;exitY=0.5;exitDx=0;exitDy=0;" edge="1" parent="1" source="N1rbi3j3c_Pf0nSzD1yM-8">
          <mxGeometry width="100" height="100" relative="1" as="geometry">
            <mxPoint x="-10" y="1060" as="sourcePoint" />
            <mxPoint x="150" y="1120.01" as="targetPoint" />
            <Array as="points">
              <mxPoint x="-10" y="1030" />
              <mxPoint x="90" y="1040" />
              <mxPoint x="60" y="1110" />
              <mxPoint x="60" y="1100" />
            </Array>
          </mxGeometry>
        </mxCell>
        <mxCell id="N1rbi3j3c_Pf0nSzD1yM-106" value="" style="edgeStyle=entityRelationEdgeStyle;fontSize=12;html=1;endArrow=ERzeroToOne;startArrow=ERmandOne;rounded=0;fontFamily=Architects Daughter;fontSource=https%3A%2F%2Ffonts.googleapis.com%2Fcss%3Ffamily%3DArchitects%2BDaughter;startSize=14;endSize=14;sourcePerimeterSpacing=8;targetPerimeterSpacing=8;curved=1;exitX=1.006;exitY=0.671;exitDx=0;exitDy=0;exitPerimeter=0;" edge="1" parent="1" source="N1rbi3j3c_Pf0nSzD1yM-70">
          <mxGeometry width="100" height="100" relative="1" as="geometry">
            <mxPoint x="315" y="1077.43" as="sourcePoint" />
            <mxPoint x="440" y="1060" as="targetPoint" />
            <Array as="points">
              <mxPoint x="318" y="1045.43" />
            </Array>
          </mxGeometry>
        </mxCell>
        <mxCell id="N1rbi3j3c_Pf0nSzD1yM-107" value="&lt;h1 style=&quot;margin-top: 0px;&quot;&gt;Sales calculations&lt;/h1&gt;&lt;p&gt;Sales&amp;nbsp; = quantity * price.&lt;/p&gt;" style="text;html=1;whiteSpace=wrap;overflow=hidden;rounded=0;fontFamily=Times New Roman;" vertex="1" parent="1">
          <mxGeometry x="192.5" y="1345" width="210" height="65" as="geometry" />
        </mxCell>
        <mxCell id="N1rbi3j3c_Pf0nSzD1yM-108" value="" style="endArrow=none;dashed=1;html=1;dashPattern=1 3;strokeWidth=2;rounded=0;fontFamily=Architects Daughter;fontSource=https%3A%2F%2Ffonts.googleapis.com%2Fcss%3Ffamily%3DArchitects%2BDaughter;fontSize=16;startSize=14;endSize=14;sourcePerimeterSpacing=8;targetPerimeterSpacing=8;curved=1;exitX=0.328;exitY=-0.018;exitDx=0;exitDy=0;exitPerimeter=0;entryX=0.562;entryY=-0.026;entryDx=0;entryDy=0;entryPerimeter=0;" edge="1" parent="1" source="N1rbi3j3c_Pf0nSzD1yM-107" target="N1rbi3j3c_Pf0nSzD1yM-91">
          <mxGeometry width="50" height="50" relative="1" as="geometry">
            <mxPoint x="250" y="1310" as="sourcePoint" />
            <mxPoint x="300" y="1260" as="targetPoint" />
          </mxGeometry>
        </mxCell>
        <mxCell id="N1rbi3j3c_Pf0nSzD1yM-109" value="" style="rounded=0;whiteSpace=wrap;html=1;fontFamily=Architects Daughter;fontSource=https%3A%2F%2Ffonts.googleapis.com%2Fcss%3Ffamily%3DArchitects%2BDaughter;fillColor=none;strokeColor=#666666;dashed=1;fontColor=#333333;" vertex="1" parent="1">
          <mxGeometry x="-630" y="170" width="120" height="260" as="geometry" />
        </mxCell>
        <mxCell id="N1rbi3j3c_Pf0nSzD1yM-110" value="Gold Layer" style="rounded=0;whiteSpace=wrap;html=1;fontFamily=Times New Roman;fillColor=#fff2cc;strokeColor=#d6b656;gradientColor=#ffd966;" vertex="1" parent="1">
          <mxGeometry x="-609.37" y="150" width="78.75" height="30" as="geometry" />
        </mxCell>
        <mxCell id="N1rbi3j3c_Pf0nSzD1yM-111" value="fact_sales" style="rounded=0;whiteSpace=wrap;html=1;fontFamily=Times New Roman;fillColor=#fff2cc;strokeColor=#d6b656;gradientColor=#ffd966;" vertex="1" parent="1">
          <mxGeometry x="-620" y="205" width="100" height="20" as="geometry" />
        </mxCell>
        <mxCell id="N1rbi3j3c_Pf0nSzD1yM-117" value="dim_customers" style="rounded=0;whiteSpace=wrap;html=1;fontFamily=Times New Roman;fillColor=#fff2cc;strokeColor=#d6b656;gradientColor=#ffd966;" vertex="1" parent="1">
          <mxGeometry x="-620" y="275" width="100" height="20" as="geometry" />
        </mxCell>
        <mxCell id="N1rbi3j3c_Pf0nSzD1yM-118" value="dim_products" style="rounded=0;whiteSpace=wrap;html=1;fontFamily=Times New Roman;fillColor=#fff2cc;strokeColor=#d6b656;gradientColor=#ffd966;" vertex="1" parent="1">
          <mxGeometry x="-620" y="375" width="100" height="20" as="geometry" />
        </mxCell>
        <mxCell id="N1rbi3j3c_Pf0nSzD1yM-119" value="" style="endArrow=classic;html=1;rounded=0;fontFamily=Architects Daughter;fontSource=https%3A%2F%2Ffonts.googleapis.com%2Fcss%3Ffamily%3DArchitects%2BDaughter;fontSize=16;sourcePerimeterSpacing=8;targetPerimeterSpacing=8;curved=1;entryX=0;entryY=0.75;entryDx=0;entryDy=0;strokeWidth=1;" edge="1" parent="1" target="N1rbi3j3c_Pf0nSzD1yM-111">
          <mxGeometry width="50" height="50" relative="1" as="geometry">
            <mxPoint x="-680" y="220" as="sourcePoint" />
            <mxPoint x="-630" y="170" as="targetPoint" />
          </mxGeometry>
        </mxCell>
        <mxCell id="N1rbi3j3c_Pf0nSzD1yM-120" value="" style="endArrow=classic;html=1;rounded=0;fontFamily=Architects Daughter;fontSource=https%3A%2F%2Ffonts.googleapis.com%2Fcss%3Ffamily%3DArchitects%2BDaughter;fontSize=16;sourcePerimeterSpacing=8;targetPerimeterSpacing=8;curved=1;entryX=0;entryY=0.75;entryDx=0;entryDy=0;strokeWidth=1;" edge="1" parent="1" target="N1rbi3j3c_Pf0nSzD1yM-117">
          <mxGeometry width="50" height="50" relative="1" as="geometry">
            <mxPoint x="-680" y="249.71" as="sourcePoint" />
            <mxPoint x="-620" y="249.71" as="targetPoint" />
          </mxGeometry>
        </mxCell>
        <mxCell id="N1rbi3j3c_Pf0nSzD1yM-121" value="" style="endArrow=classic;html=1;rounded=0;fontFamily=Architects Daughter;fontSource=https%3A%2F%2Ffonts.googleapis.com%2Fcss%3Ffamily%3DArchitects%2BDaughter;fontSize=16;sourcePerimeterSpacing=8;targetPerimeterSpacing=8;curved=1;entryX=0;entryY=0.5;entryDx=0;entryDy=0;strokeWidth=1;exitX=1;exitY=0.5;exitDx=0;exitDy=0;" edge="1" parent="1" source="dWKjTe6CmLwS2-9Y5jQj-52" target="N1rbi3j3c_Pf0nSzD1yM-117">
          <mxGeometry width="50" height="50" relative="1" as="geometry">
            <mxPoint x="-670" y="259.71000000000004" as="sourcePoint" />
            <mxPoint x="-610" y="295" as="targetPoint" />
          </mxGeometry>
        </mxCell>
        <mxCell id="N1rbi3j3c_Pf0nSzD1yM-122" value="" style="endArrow=classic;html=1;rounded=0;fontFamily=Architects Daughter;fontSource=https%3A%2F%2Ffonts.googleapis.com%2Fcss%3Ffamily%3DArchitects%2BDaughter;fontSize=16;sourcePerimeterSpacing=8;targetPerimeterSpacing=8;curved=1;entryX=0;entryY=0.5;entryDx=0;entryDy=0;strokeWidth=1;exitX=1;exitY=0.5;exitDx=0;exitDy=0;" edge="1" parent="1" target="N1rbi3j3c_Pf0nSzD1yM-117">
          <mxGeometry width="50" height="50" relative="1" as="geometry">
            <mxPoint x="-680" y="372.5" as="sourcePoint" />
            <mxPoint x="-620" y="317.5" as="targetPoint" />
          </mxGeometry>
        </mxCell>
        <mxCell id="N1rbi3j3c_Pf0nSzD1yM-123" value="" style="endArrow=classic;html=1;rounded=0;fontFamily=Architects Daughter;fontSource=https%3A%2F%2Ffonts.googleapis.com%2Fcss%3Ffamily%3DArchitects%2BDaughter;fontSize=16;sourcePerimeterSpacing=8;targetPerimeterSpacing=8;curved=1;entryX=0;entryY=0.5;entryDx=0;entryDy=0;strokeWidth=1;" edge="1" parent="1" target="N1rbi3j3c_Pf0nSzD1yM-118">
          <mxGeometry width="50" height="50" relative="1" as="geometry">
            <mxPoint x="-680" y="279.85" as="sourcePoint" />
            <mxPoint x="-620" y="320.14" as="targetPoint" />
          </mxGeometry>
        </mxCell>
        <mxCell id="N1rbi3j3c_Pf0nSzD1yM-124" value="" style="endArrow=classic;html=1;rounded=0;fontFamily=Architects Daughter;fontSource=https%3A%2F%2Ffonts.googleapis.com%2Fcss%3Ffamily%3DArchitects%2BDaughter;fontSize=16;sourcePerimeterSpacing=8;targetPerimeterSpacing=8;curved=1;entryX=0;entryY=0.5;entryDx=0;entryDy=0;strokeWidth=1;" edge="1" parent="1" target="N1rbi3j3c_Pf0nSzD1yM-118">
          <mxGeometry width="50" height="50" relative="1" as="geometry">
            <mxPoint x="-680" y="405" as="sourcePoint" />
            <mxPoint x="-620" y="510.15" as="targetPoint" />
          </mxGeometry>
        </mxCell>
      </root>
    </mxGraphModel>
  </diagram>
</mxfile>
